<?xml version="1.0" standalone="no"?>
<!DOCTYPE svg PUBLIC "-//W3C//DTD SVG 20010904//EN"
 "http://www.w3.org/TR/2001/REC-SVG-20010904/DTD/svg10.dtd">
<svg version="1.0" xmlns="http://www.w3.org/2000/svg"
 width="3392.000000pt" height="3392.000000pt" viewBox="0 0 3392.000000 3392.000000"
 preserveAspectRatio="xMidYMid meet">
<metadata>
Created by potrace 1.14, written by Peter Selinger 2001-2017
</metadata>
<g transform="translate(0.000000,3392.000000) scale(0.100000,-0.100000)"
fill="#000000" stroke="none">
<path d="M1999 21618 c0 -2 -2 -29 -4 -60 -2 -39 1 -58 9 -59 49 -3 201 -24
246 -35 14 -3 36 -8 50 -11 14 -2 26 -8 28 -13 2 -4 12 -5 24 -2 16 4 19 2 13
-8 -5 -8 -4 -11 2 -7 11 7 83 -13 83 -23 0 -4 6 -7 13 -7 17 -1 107 -41 107
-48 0 -4 -4 -4 -8 -1 -5 3 -9 -1 -9 -9 0 -11 4 -12 14 -4 16 14 67 -16 57 -33
-4 -7 -3 -8 5 -4 6 4 18 1 25 -6 8 -7 30 -26 49 -42 22 -18 33 -35 29 -44 -3
-10 -1 -13 5 -9 15 10 45 -22 39 -40 -3 -8 -1 -11 4 -8 12 8 84 -101 75 -114
-3 -6 -1 -11 4 -11 6 0 11 -7 11 -15 0 -8 5 -15 10 -15 6 0 10 -6 10 -14 0 -8
9 -36 20 -62 11 -26 22 -54 24 -63 1 -9 10 -34 19 -55 10 -22 15 -41 12 -44
-3 -3 -1 -10 4 -16 6 -7 12 -24 15 -39 2 -15 10 -42 17 -61 10 -28 10 -45 -1
-90 -7 -31 -17 -56 -22 -56 -4 0 -8 -10 -8 -21 0 -12 -16 -69 -36 -128 -20
-58 -37 -113 -39 -121 -2 -8 -4 -16 -5 -17 -2 -2 -3 -6 -4 -10 -3 -11 -36
-115 -43 -133 -4 -8 -7 -18 -8 -22 -2 -5 -3 -9 -5 -10 -1 -2 -3 -10 -5 -18 -3
-15 -32 -103 -42 -130 -3 -8 -7 -22 -8 -30 -2 -13 -27 -88 -81 -240 -8 -25
-18 -56 -20 -70 -3 -14 -9 -27 -15 -28 -5 -2 -7 -8 -4 -13 3 -5 0 -19 -7 -31
-7 -13 -11 -26 -10 -30 1 -3 -10 -37 -23 -75 -14 -37 -26 -70 -26 -73 -1 -3
-3 -9 -4 -15 -1 -5 -10 -32 -19 -60 -10 -27 -20 -61 -22 -75 -3 -13 -8 -27
-12 -30 -4 -3 -8 -14 -10 -25 -2 -11 -10 -40 -19 -65 -8 -25 -16 -52 -19 -60
-3 -16 -82 -254 -92 -280 -3 -8 -6 -18 -7 -22 -2 -5 -4 -10 -5 -13 -1 -3 -4
-9 -5 -15 -1 -5 -4 -12 -5 -15 -1 -3 -4 -9 -5 -15 -1 -5 -4 -12 -5 -15 -1 -3
-3 -8 -4 -12 -3 -16 -47 -149 -55 -168 -11 -28 -89 -274 -97 -307 -3 -16 -10
-28 -16 -28 -5 0 -6 -4 -3 -10 3 -5 3 -16 -2 -22 -4 -7 -8 -15 -8 -18 -1 -3
-14 -45 -29 -95 -16 -49 -29 -92 -28 -95 0 -3 -3 -9 -8 -15 -4 -5 -11 -25 -15
-44 -4 -19 -14 -50 -23 -70 -9 -20 -16 -40 -17 -46 -1 -5 -3 -13 -5 -17 -4
-11 -7 -26 -9 -39 0 -5 -7 -7 -13 -3 -10 5 -10 4 -1 -6 9 -10 8 -18 -4 -36 -8
-13 -12 -24 -8 -24 4 0 2 -7 -5 -15 -7 -8 -9 -15 -5 -15 4 0 1 -7 -6 -17 -8
-9 -12 -18 -10 -20 5 -6 -23 -93 -31 -93 -4 0 -5 -9 -3 -20 2 -11 -1 -20 -7
-20 -6 0 -9 -3 -5 -6 3 -4 -5 -35 -18 -70 -13 -35 -22 -64 -20 -64 2 0 -3 -17
-12 -37 -8 -21 -17 -49 -20 -63 -2 -14 -8 -29 -14 -35 -5 -5 -9 -19 -9 -32 0
-13 -5 -23 -11 -23 -5 0 -8 -4 -5 -8 3 -4 -6 -38 -18 -75 -13 -36 -21 -68 -18
-71 3 -4 -1 -6 -8 -6 -7 0 -11 -2 -8 -5 6 -6 -26 -118 -39 -139 -4 -6 -9 -21
-11 -33 -1 -12 -10 -39 -19 -60 -16 -34 -20 -53 -25 -90 -1 -7 -4 -13 -8 -13
-4 0 -7 -6 -7 -12 0 -7 -22 -76 -47 -153 -26 -77 -48 -148 -49 -157 -1 -10 -4
-18 -7 -18 -5 0 -11 -17 -35 -102 -2 -5 -3 -13 -4 -19 0 -5 -5 -7 -11 -4 -6 3
-7 -1 -4 -10 4 -8 2 -28 -4 -43 -6 -15 -13 -36 -18 -47 -4 -11 -9 -27 -10 -35
-12 -50 -41 -129 -46 -124 -4 3 -5 -2 -4 -13 2 -10 -1 -27 -7 -38 -6 -11 -11
-24 -12 -30 -1 -17 -27 -89 -36 -101 -5 -6 -6 -13 -3 -17 3 -3 0 -16 -7 -29
-8 -12 -15 -34 -16 -47 -1 -13 -6 -27 -10 -30 -4 -3 -9 -17 -11 -31 -1 -13 -6
-27 -10 -30 -4 -3 -7 -11 -8 -17 -2 -30 -5 -34 -14 -28 -6 3 -7 -1 -4 -9 3 -8
-2 -39 -12 -68 -9 -29 -17 -54 -16 -55 1 -2 -7 -23 -18 -48 -11 -25 -20 -49
-20 -53 0 -4 -8 -29 -17 -57 -10 -27 -18 -52 -18 -55 -1 -3 -7 -25 -15 -50 -7
-25 -15 -49 -16 -55 -2 -5 -14 -40 -27 -77 -13 -37 -22 -70 -19 -73 3 -3 0 -5
-6 -5 -7 0 -11 -3 -11 -7 3 -15 -14 -73 -22 -79 -4 -2 -6 -11 -2 -19 3 -8 0
-15 -6 -15 -6 0 -10 -3 -9 -7 4 -15 -24 -113 -32 -113 -4 0 -8 -6 -7 -12 1
-35 -4 -49 -15 -42 -7 4 -8 3 -4 -5 4 -6 -4 -45 -19 -86 -14 -41 -28 -84 -30
-96 -3 -13 -8 -25 -13 -28 -4 -3 -8 -13 -8 -21 0 -8 -3 -22 -6 -30 -3 -8 -11
-35 -19 -60 -7 -25 -17 -51 -22 -57 -5 -7 -6 -13 -2 -13 4 0 2 -7 -5 -15 -7
-8 -9 -15 -5 -15 4 0 0 -12 -10 -26 -11 -18 -12 -24 -4 -18 11 6 12 5 2 -7 -6
-8 -14 -26 -17 -39 -7 -38 -17 -60 -28 -60 -5 0 -6 -4 -3 -10 3 -5 0 -20 -7
-32 -7 -13 -13 -25 -13 -28 -2 -15 -50 -110 -55 -110 -4 0 -7 -6 -7 -13 0 -17
-53 -97 -65 -97 -5 0 -7 -4 -4 -8 2 -4 -10 -22 -27 -40 -68 -68 -97 -93 -97
-85 0 4 -4 3 -8 -3 -9 -14 -74 -49 -85 -46 -4 1 -7 -2 -7 -7 0 -5 -15 -13 -32
-16 -18 -4 -37 -11 -43 -15 -5 -5 -26 -11 -45 -14 -19 -4 -46 -9 -60 -11 -53
-10 -75 -14 -88 -14 -6 -1 -11 -4 -11 -8 1 -5 0 -12 -1 -18 -6 -29 -1 -88 8
-94 5 -3 130 -6 276 -5 185 0 266 -3 266 -10 0 -7 3 -8 8 -1 10 15 84 17 76 3
-5 -7 -2 -8 7 -2 20 13 122 14 138 1 17 -14 43 -18 35 -6 -3 5 -9 7 -14 4 -5
-3 -11 -1 -15 4 -4 7 46 10 140 8 l145 -2 0 63 c0 34 -3 63 -7 63 -5 1 -24 3
-43 5 -19 2 -39 9 -44 14 -6 6 -18 10 -28 10 -10 0 -18 5 -18 10 0 6 -6 10
-13 10 -22 0 -87 77 -102 120 -8 22 -12 40 -8 40 3 0 1 6 -5 13 -6 7 -9 52 -7
112 4 103 6 122 25 190 7 22 14 52 17 68 3 15 9 27 13 27 4 0 7 6 7 13 -1 21
15 77 22 77 4 0 8 11 9 26 1 14 6 33 12 43 5 10 6 21 3 25 -3 3 -1 6 6 6 7 0
11 6 8 14 -3 8 -3 17 1 21 4 4 7 10 8 13 0 4 3 14 7 22 3 8 17 53 32 100 14
47 29 92 32 100 3 8 7 18 8 23 2 4 3 8 5 10 1 1 3 9 5 18 8 41 17 59 28 53 9
-5 9 -4 1 5 -11 12 3 73 24 105 3 6 7 16 7 21 2 23 36 119 47 133 7 9 8 13 2
10 -6 -4 -3 14 5 42 9 26 20 45 25 42 5 -3 6 0 2 6 -6 11 31 133 44 142 4 3 6
13 4 22 -1 10 2 20 7 24 5 3 7 10 3 15 -3 6 5 22 17 37 16 17 17 21 5 12 -19
-15 -19 -14 -3 16 9 17 13 34 10 38 -4 3 -1 6 5 6 7 0 11 3 10 8 -3 13 14 77
24 90 6 6 8 12 5 12 -3 0 4 24 15 53 11 28 20 60 20 70 -1 9 4 17 9 17 6 0 7
5 4 10 -3 6 -2 10 3 10 5 0 8 10 8 23 -1 15 4 21 14 19 12 -3 12 -1 3 9 -7 7
-8 18 -3 28 4 9 13 35 20 59 7 27 15 40 22 36 7 -4 8 -3 4 4 -10 16 14 103 27
95 6 -3 7 -1 3 5 -8 14 24 123 35 117 4 -3 5 5 1 17 -4 16 -2 19 8 13 9 -5 11
-4 6 4 -11 17 24 122 38 114 6 -4 5 0 -2 9 -9 11 -10 18 -2 23 5 3 10 15 10
26 0 11 4 17 10 14 5 -3 7 0 5 8 -3 7 6 47 20 88 15 41 27 79 29 86 1 7 5 16
9 19 4 4 7 18 7 30 0 13 4 25 9 29 6 3 10 13 9 23 0 21 27 94 33 88 2 -2 5 9
5 26 1 17 5 33 10 37 5 3 9 11 9 16 1 23 29 115 36 115 4 0 6 9 4 20 -2 11 0
20 6 20 5 0 8 3 8 8 -1 4 0 10 1 15 5 15 8 27 9 43 0 9 6 12 13 8 7 -4 8 -3 4
4 -3 6 3 37 14 69 11 32 23 72 25 88 6 34 25 77 40 87 6 5 6 8 -1 8 -8 0 -2
28 16 75 15 41 26 75 23 75 -3 0 0 6 6 13 6 8 12 22 14 33 1 10 6 25 10 32 5
6 6 12 4 12 -3 0 1 17 9 38 7 20 18 36 25 34 9 -2 10 0 1 10 -8 11 -8 21 3 41
15 29 15 29 15 53 0 9 5 12 12 8 6 -4 8 -3 4 4 -3 6 -1 29 6 50 l12 39 218 -1
c120 0 218 3 218 7 0 5 5 5 11 1 16 -10 229 -11 229 -1 0 5 5 5 12 1 16 -10
68 -11 68 -1 0 5 5 5 11 1 16 -10 229 -11 229 -1 0 5 5 5 12 1 16 -10 68 -11
68 -1 0 5 5 5 11 1 16 -10 229 -11 229 -1 0 5 5 5 12 1 16 -10 68 -11 68 -1 0
5 5 5 11 1 16 -10 229 -11 229 -1 0 5 5 5 11 1 6 -3 56 -7 112 -8 l100 -1 13
-37 c9 -28 10 -38 1 -42 -7 -2 -4 -5 6 -5 10 -1 15 -5 12 -11 -3 -5 2 -21 11
-35 12 -19 13 -25 3 -25 -8 0 -7 -5 5 -13 10 -7 18 -28 19 -49 1 -20 5 -34 8
-32 12 7 17 -34 5 -46 -8 -8 -6 -9 9 -4 11 4 17 4 13 0 -3 -4 0 -22 7 -39 25
-62 28 -80 14 -73 -8 4 -6 1 3 -7 10 -8 19 -23 21 -33 2 -10 7 -27 11 -36 4
-9 9 -23 10 -32 1 -8 5 -19 9 -22 4 -4 7 -18 7 -30 0 -13 5 -26 10 -29 15 -9
12 -37 -2 -30 -7 4 -5 0 5 -8 16 -14 36 -60 41 -97 1 -9 5 -21 10 -28 4 -6 4
-12 -1 -12 -4 0 -2 -4 4 -8 7 -5 14 -20 15 -35 1 -15 5 -27 9 -27 4 0 9 -11
11 -25 3 -16 1 -22 -6 -18 -6 4 -4 -2 5 -13 22 -25 42 -91 33 -105 -4 -7 -3
-9 4 -5 9 6 44 -87 45 -121 0 -7 5 -13 10 -13 5 0 4 -7 -3 -16 -11 -12 -11
-15 1 -12 10 2 14 -7 14 -29 0 -17 4 -29 9 -26 5 4 7 -3 4 -15 -4 -13 -1 -20
5 -19 14 3 16 -26 2 -35 -6 -5 -3 -8 6 -8 9 0 19 -7 23 -15 3 -8 1 -15 -5 -15
-6 0 -3 -7 5 -16 9 -8 14 -19 11 -24 -3 -5 -1 -11 5 -15 5 -3 10 -17 10 -31 0
-13 5 -24 11 -24 6 0 9 -7 6 -15 -4 -8 -2 -17 3 -20 4 -3 7 -16 5 -30 -1 -14
0 -23 3 -20 9 8 60 -137 56 -158 -1 -10 1 -15 7 -12 5 4 10 -1 10 -9 2 -23 4
-30 10 -41 3 -5 11 -30 18 -55 7 -25 18 -55 23 -66 6 -12 11 -33 11 -47 1 -14
5 -23 10 -20 4 2 7 -7 7 -21 0 -14 5 -28 10 -31 8 -5 7 -12 -2 -23 -7 -9 -8
-13 -2 -9 11 6 40 -58 36 -80 -2 -7 1 -13 6 -13 6 0 31 -73 37 -110 0 -3 6
-15 13 -27 7 -13 10 -23 7 -23 -3 0 1 -15 9 -34 8 -19 12 -37 8 -40 -3 -3 -1
-6 4 -6 5 0 10 -10 11 -22 1 -11 6 -24 10 -27 5 -3 9 -13 9 -21 0 -8 10 -41
22 -73 12 -33 24 -66 26 -75 2 -10 6 -25 10 -34 4 -9 9 -22 10 -30 2 -7 6 -21
9 -30 10 -26 18 -52 19 -58 0 -3 4 -13 9 -22 7 -12 4 -20 -8 -28 -17 -11 -17
-11 0 -6 18 6 24 -2 29 -39 2 -11 5 -22 9 -25 4 -4 60 -170 65 -192 1 -5 3
-10 4 -13 1 -3 3 -8 5 -12 1 -5 5 -16 10 -26 4 -10 8 -31 9 -46 0 -16 4 -27 8
-25 14 9 14 -22 -1 -33 -14 -10 -14 -11 3 -10 10 1 20 -5 21 -13 6 -31 10 -45
16 -50 4 -3 9 -16 10 -30 2 -14 9 -28 14 -32 6 -5 5 -8 -3 -8 -10 0 -9 -4 3
-16 9 -9 14 -22 11 -30 -3 -7 0 -15 7 -17 9 -3 8 -10 -2 -28 -13 -21 -13 -23
1 -11 13 10 17 8 23 -20 4 -18 7 -36 6 -40 0 -5 3 -8 9 -8 5 0 10 -10 10 -23
0 -13 3 -27 7 -31 4 -3 8 -12 9 -19 1 -7 9 -31 18 -55 8 -23 15 -44 16 -47 0
-3 0 -6 1 -7 2 -7 10 -55 12 -73 1 -11 5 -22 9 -26 13 -9 16 -93 4 -108 -8
-11 -8 -13 2 -7 9 5 11 -5 8 -46 -2 -29 -5 -53 -6 -53 -1 0 -3 -8 -5 -17 -6
-30 -43 -84 -76 -109 -17 -13 -33 -22 -34 -19 -1 3 -8 0 -16 -6 -13 -11 -57
-25 -89 -30 -29 -4 -84 -15 -87 -17 -4 -5 -6 -107 -2 -112 3 -3 93 -6 200 -8
135 -2 193 -6 192 -14 -1 -6 5 -17 14 -25 14 -11 16 -11 8 2 -21 34 -13 36
106 36 75 1 116 -3 112 -9 -4 -6 -1 -7 8 -1 21 13 123 14 131 0 6 -8 8 -7 8 2
0 17 40 15 61 -4 13 -12 19 -12 25 -3 4 7 3 10 -4 5 -6 -3 -13 -2 -16 3 -3 5
68 8 169 8 96 0 178 3 181 6 4 3 7 27 8 53 1 54 -15 70 -79 78 -75 9 -273 127
-275 164 0 6 -4 12 -9 12 -10 0 -100 116 -109 140 -3 8 -14 26 -24 39 -10 13
-15 27 -12 32 3 5 0 9 -6 9 -6 0 -9 4 -6 9 4 5 2 11 -3 13 -9 3 -71 139 -71
156 0 5 -7 23 -15 40 -9 17 -18 41 -20 54 -3 13 -9 32 -14 43 -20 44 -41 126
-35 137 4 6 3 8 -3 5 -9 -5 -37 66 -38 95 0 3 -3 10 -7 14 -5 4 -8 18 -8 31 0
13 -4 23 -8 23 -4 0 -9 10 -9 22 -1 13 -6 32 -12 43 -8 17 -52 147 -57 168 -1
4 -3 10 -4 15 -2 4 -4 12 -5 17 -2 6 -4 13 -5 18 -1 4 -3 10 -5 15 -1 4 -4 14
-8 22 -7 19 -31 93 -32 100 0 3 -3 10 -6 15 -4 6 -10 24 -14 40 -10 34 -10 35
-18 55 -6 17 -31 92 -32 100 -2 8 -65 204 -72 220 -3 8 -8 21 -10 28 -1 6 -5
18 -6 25 -2 6 -6 19 -10 27 -22 61 -67 199 -69 215 -2 11 -6 25 -10 30 -5 9
-58 173 -64 200 -2 6 -14 40 -28 77 -13 36 -22 69 -18 72 3 3 1 6 -4 6 -5 0
-10 8 -11 18 -1 9 -13 50 -27 91 -14 41 -23 78 -21 82 3 4 1 9 -5 11 -5 1 -11
14 -12 28 -2 14 -6 27 -10 30 -4 3 -9 15 -11 25 -2 11 -7 27 -10 35 -3 8 -7
24 -9 35 -2 11 -5 22 -8 25 -5 5 -63 176 -66 195 -1 6 -3 15 -4 20 -1 6 -2 13
-1 18 0 4 -4 7 -9 7 -5 0 -9 3 -8 8 2 12 -14 66 -25 80 -5 6 -7 12 -4 12 3 0
-7 37 -23 83 -16 45 -30 91 -32 102 -2 11 -6 22 -10 25 -4 3 -8 17 -10 30 -2
14 -7 31 -11 38 -5 6 -5 17 -2 22 3 6 2 10 -4 10 -5 0 -13 15 -17 33 -10 40
-9 39 -17 57 -9 21 -89 263 -91 275 -1 6 -4 15 -8 20 -7 13 -22 78 -20 88 1 4
-3 7 -8 7 -5 0 -9 3 -9 8 1 4 0 9 -1 12 -2 5 -7 29 -13 53 -1 6 -6 18 -10 24
-5 7 -10 21 -12 30 -2 10 -18 61 -35 113 -17 52 -33 102 -36 110 -4 18 -26 83
-65 199 -16 46 -26 88 -23 92 3 5 0 9 -6 9 -7 0 -10 6 -7 14 3 8 2 16 -4 18
-5 2 -11 13 -14 26 -4 23 -58 193 -77 244 -6 15 -10 30 -9 32 0 3 -6 21 -15
41 -8 19 -14 36 -13 37 0 4 -10 36 -21 63 -8 21 -34 104 -36 118 -1 4 -3 9 -4
12 -1 3 -4 10 -5 15 -1 6 -4 12 -5 15 -1 3 -3 8 -4 13 -1 4 -6 21 -13 37 -12
32 -27 84 -27 100 -1 6 -7 16 -13 23 -7 7 -13 20 -13 27 0 17 -48 174 -60 196
-8 15 -33 95 -34 111 -1 3 -4 10 -8 14 -5 4 -8 14 -8 23 0 9 -7 29 -15 44 -9
18 -10 25 -2 20 7 -4 4 5 -6 20 -9 15 -15 27 -12 27 3 0 1 8 -4 18 -6 11 -12
30 -15 43 -2 13 -12 41 -20 62 -9 21 -14 42 -11 47 3 4 1 10 -5 12 -5 1 -11
12 -13 23 -1 11 -5 25 -8 30 -6 9 -16 48 -20 70 0 6 -5 18 -11 28 -5 10 -11
26 -13 35 -2 9 -19 62 -38 117 -19 55 -35 103 -36 107 -5 24 -10 38 -24 82 -9
26 -14 53 -10 60 3 6 2 8 -2 3 -8 -7 -65 148 -68 186 -1 9 -6 17 -11 17 -5 0
-7 3 -4 6 3 3 -9 48 -28 101 -18 52 -31 99 -29 103 3 5 1 10 -5 12 -5 1 -11
15 -12 31 -1 15 -6 27 -9 27 -4 0 -10 15 -14 33 -6 27 -21 77 -43 137 -3 8 -6
20 -8 25 -1 6 -30 93 -64 195 -34 102 -63 190 -64 195 -1 6 -4 15 -7 20 -6 9
-13 34 -24 85 -8 33 -82 218 -93 231 -59 70 -98 98 -165 116 -22 7 -916 17
-918 11z m1096 -1238 c-3 -5 -1 -12 5 -15 8 -5 7 -12 -2 -23 -8 -10 -9 -13 -1
-9 12 7 33 -41 36 -82 1 -12 4 -21 8 -21 7 0 32 -75 35 -109 2 -13 7 -27 11
-30 4 -3 8 -15 8 -26 -1 -11 2 -22 5 -25 12 -10 40 -112 33 -123 -3 -5 -1 -7
4 -4 10 6 38 -70 37 -103 0 -8 4 -17 8 -20 4 -3 9 -15 11 -25 2 -11 9 -31 16
-44 12 -22 12 -23 -5 -17 -14 4 -12 1 5 -12 13 -11 21 -24 17 -31 -4 -6 -2
-11 4 -11 6 0 8 -5 5 -10 -4 -6 -2 -16 3 -23 5 -7 13 -23 17 -36 5 -18 4 -22
-6 -17 -8 4 -6 1 4 -7 10 -8 19 -24 20 -36 1 -12 5 -21 10 -21 4 0 5 -5 2 -10
-4 -6 -2 -16 4 -23 5 -7 12 -24 15 -39 2 -14 10 -37 17 -50 7 -12 11 -23 10
-23 -1 0 3 -13 9 -29 6 -16 12 -36 14 -45 2 -9 8 -27 13 -41 6 -14 9 -33 7
-43 -1 -10 1 -15 7 -12 5 4 9 -5 9 -19 0 -14 5 -28 10 -31 6 -4 8 -11 5 -16
-4 -5 -1 -9 5 -9 6 0 9 -4 6 -9 -4 -5 3 -30 14 -56 11 -26 20 -58 20 -71 0
-13 5 -24 11 -24 5 0 8 -4 4 -9 -3 -5 0 -13 6 -16 5 -4 8 -13 5 -21 -3 -8 0
-14 6 -14 6 0 8 -3 5 -7 -4 -3 -2 -12 4 -20 6 -7 8 -13 4 -13 -4 0 -2 -7 5
-15 10 -12 10 -15 -1 -15 -10 0 -11 -2 -2 -8 6 -4 21 -35 33 -70 19 -53 20
-65 8 -80 -12 -15 -11 -16 4 -4 14 11 17 9 23 -20 4 -18 12 -39 17 -45 6 -7 8
-13 4 -13 -4 0 0 -13 9 -30 8 -16 15 -31 14 -32 -1 -2 6 -27 15 -55 10 -29 14
-58 10 -64 -4 -7 -3 -9 3 -6 13 8 27 -39 17 -55 -4 -7 -3 -8 4 -4 8 5 12 -2
12 -18 0 -14 5 -26 10 -26 6 0 10 -13 10 -30 0 -16 4 -30 8 -30 4 0 9 -12 10
-27 1 -15 5 -29 10 -32 8 -7 13 -26 16 -58 0 -11 4 -19 9 -16 4 2 7 -7 7 -21
0 -14 5 -28 11 -31 6 -4 8 -13 5 -21 -3 -8 -1 -14 5 -14 6 0 8 -4 4 -9 -3 -5
-1 -12 5 -16 5 -3 10 -15 10 -26 0 -11 7 -33 15 -49 10 -19 12 -30 5 -30 -6 0
-4 -7 4 -16 14 -14 20 -36 19 -71 -1 -7 3 -10 8 -7 5 3 9 -3 9 -13 0 -11 6
-25 13 -32 10 -11 9 -12 -3 -6 -12 7 -13 6 -3 -6 6 -8 16 -27 22 -42 l10 -27
-882 1 c-485 0 -887 3 -893 7 -7 5 -2 33 16 85 15 42 29 75 31 72 3 -2 5 8 4
23 0 15 3 29 7 32 4 3 10 17 12 30 2 14 5 26 7 28 1 1 3 7 4 12 1 6 3 11 4 13
2 1 5 13 7 27 2 13 8 27 12 30 4 3 8 14 10 25 2 11 6 27 9 35 4 8 7 17 7 20 5
27 32 97 41 102 6 5 5 8 -3 8 -9 0 -8 7 4 25 9 14 14 25 11 25 -4 0 2 20 13
44 10 24 16 47 13 50 -4 3 -1 6 5 6 6 0 9 7 6 15 -4 8 -1 15 6 15 6 0 9 4 6 9
-8 12 4 42 14 36 5 -3 6 3 3 13 -2 10 1 31 8 47 7 17 14 39 16 50 2 11 6 27
10 35 3 8 7 18 8 23 2 4 4 9 5 12 1 3 4 10 5 15 1 6 4 12 5 15 3 7 7 22 9 36
0 5 6 7 13 3 7 -5 8 -3 3 5 -4 7 10 65 30 129 40 126 46 144 47 152 1 3 8 11
17 18 9 8 10 11 4 7 -15 -7 -16 -3 -4 27 20 51 24 64 22 77 -2 9 3 12 16 7 14
-6 15 -5 6 5 -9 9 -10 16 -2 26 7 7 9 13 5 13 -3 0 0 16 8 35 8 19 12 35 9 35
-3 0 0 6 6 13 6 8 8 17 4 20 -3 4 -1 7 5 7 6 0 9 7 6 15 -4 8 -2 15 4 15 5 0
10 6 9 13 -1 34 4 48 15 41 6 -4 8 -3 5 3 -3 5 1 32 9 59 9 27 16 55 17 62 0
8 7 10 16 7 13 -5 14 -4 4 6 -16 16 -17 33 -1 23 6 -4 8 -3 5 3 -8 13 17 96
27 86 4 -4 4 0 1 8 -3 9 0 29 6 45 7 16 13 31 13 34 1 3 4 10 7 15 4 6 9 27
13 48 4 21 11 35 16 32 6 -4 7 1 3 11 -5 13 -3 15 8 9 12 -8 12 -6 0 8 -9 12
-10 17 -2 17 7 0 10 3 8 8 -9 14 13 53 25 46 8 -5 8 -1 -1 10 -9 10 -11 20 -5
24 5 4 11 18 13 32 1 14 10 38 17 53 8 15 12 32 9 37 -3 6 -2 10 3 10 5 0 9 7
10 15 1 8 3 22 4 30 1 8 4 15 8 15 4 0 7 6 8 13 5 43 16 77 23 77 5 0 8 3 7 8
-5 14 57 200 65 195 4 -2 5 -8 2 -13z"/>
<path d="M3066 20282 c-3 -5 1 -9 9 -9 8 0 12 4 9 9 -3 4 -7 8 -9 8 -2 0 -6
-4 -9 -8z"/>
<path d="M3055 20249 c-4 -6 -5 -12 -2 -15 2 -3 7 2 10 11 7 17 1 20 -8 4z"/>
<path d="M3110 20221 c0 -6 4 -13 10 -16 6 -3 7 1 4 9 -7 18 -14 21 -14 7z"/>
<path d="M3050 20179 c0 -5 5 -7 10 -4 6 3 10 8 10 11 0 2 -4 4 -10 4 -5 0
-10 -5 -10 -11z"/>
<path d="M3030 20100 c0 -5 5 -10 10 -10 6 0 10 5 10 10 0 6 -4 10 -10 10 -5
0 -10 -4 -10 -10z"/>
<path d="M3150 20060 c0 -5 5 -10 11 -10 5 0 7 5 4 10 -3 6 -8 10 -11 10 -2 0
-4 -4 -4 -10z"/>
<path d="M3030 20056 c0 -2 8 -10 18 -17 15 -13 16 -12 3 4 -13 16 -21 21 -21
13z"/>
<path d="M3230 19881 c0 -6 4 -13 10 -16 6 -3 7 1 4 9 -7 18 -14 21 -14 7z"/>
<path d="M3290 19646 c0 -2 7 -7 16 -10 8 -3 12 -2 9 4 -6 10 -25 14 -25 6z"/>
<path d="M2825 19540 c-3 -6 1 -7 9 -4 18 7 21 14 7 14 -6 0 -13 -4 -16 -10z"/>
<path d="M3406 19302 c-3 -5 1 -9 9 -9 8 0 12 4 9 9 -3 4 -7 8 -9 8 -2 0 -6
-4 -9 -8z"/>
<path d="M3606 18698 c3 -5 10 -6 15 -3 13 9 11 12 -6 12 -8 0 -12 -4 -9 -9z"/>
<path d="M3715 18291 c-3 -5 -2 -12 3 -15 5 -3 9 1 9 9 0 17 -3 19 -12 6z"/>
<path d="M3790 18126 c0 -2 7 -7 16 -10 8 -3 12 -2 9 4 -6 10 -25 14 -25 6z"/>
<path d="M3856 17962 c-3 -5 1 -9 9 -9 8 0 12 4 9 9 -3 4 -7 8 -9 8 -2 0 -6
-4 -9 -8z"/>
<path d="M9579 21618 c0 -2 -2 -29 -4 -60 -3 -54 0 -62 26 -60 3 0 23 -4 45
-9 21 -5 49 -12 60 -14 59 -13 169 -81 200 -124 7 -9 22 -27 33 -40 12 -14 19
-30 17 -37 -3 -8 0 -11 8 -8 9 3 16 -5 20 -23 4 -15 16 -47 27 -70 11 -23 21
-60 22 -83 1 -22 5 -40 8 -40 8 0 9 -32 12 -348 1 -156 -1 -286 -6 -289 -4 -3
-4 -10 1 -16 10 -14 10 -127 -1 -144 -4 -6 -4 -14 0 -16 10 -7 10 -768 0 -784
-4 -6 -4 -14 1 -17 10 -6 9 -127 -1 -143 -4 -6 -4 -14 0 -16 10 -7 10 -768 0
-784 -4 -6 -4 -14 1 -17 10 -6 9 -127 -1 -143 -4 -6 -4 -14 0 -16 10 -7 10
-768 0 -784 -4 -6 -4 -14 1 -17 10 -6 9 -127 -1 -143 -4 -6 -4 -14 0 -16 10
-7 10 -768 0 -784 -4 -6 -4 -14 1 -17 10 -6 9 -127 -1 -143 -4 -6 -4 -14 0
-16 10 -7 10 -768 0 -784 -4 -6 -4 -14 1 -17 9 -6 9 -127 0 -142 -4 -6 -4 -14
0 -18 11 -11 9 -485 -2 -479 -5 4 -6 0 -1 -8 13 -20 14 -103 1 -111 -8 -5 -7
-8 2 -8 7 0 10 -4 7 -10 -3 -5 -3 -10 2 -10 10 0 10 -111 0 -127 -5 -7 -4 -13
0 -13 5 0 10 -12 11 -27 1 -16 4 -40 6 -55 2 -16 -2 -28 -8 -28 -6 0 -6 -4 2
-9 8 -4 15 -33 18 -67 2 -32 6 -66 7 -74 5 -20 20 -110 23 -135 1 -11 3 -21 4
-22 2 -2 4 -7 5 -13 1 -5 3 -11 5 -12 2 -3 2 -7 15 -63 3 -16 7 -34 8 -40 2
-5 6 -16 10 -22 5 -8 3 -13 -5 -13 -9 0 -10 -3 -2 -8 16 -10 37 -79 28 -93 -5
-8 -3 -9 6 -4 10 6 12 4 7 -9 -4 -10 -3 -15 3 -11 6 3 10 1 10 -4 0 -19 2 -26
13 -46 6 -11 12 -22 13 -25 0 -3 9 -23 19 -45 10 -22 18 -43 17 -47 -1 -5 2
-8 8 -8 5 0 10 -7 10 -15 0 -8 5 -15 11 -15 8 0 8 -5 -1 -15 -10 -12 -10 -15
3 -15 9 0 19 -9 22 -20 3 -11 11 -20 16 -20 5 0 9 -6 9 -13 0 -7 9 -23 20 -35
12 -12 17 -22 13 -22 -4 0 0 -5 10 -11 9 -5 17 -15 17 -20 0 -6 -5 -7 -12 -3
-7 4 -8 3 -4 -5 4 -6 11 -9 16 -6 12 7 63 -62 55 -74 -3 -6 0 -9 8 -6 7 3 32
-13 55 -37 60 -61 90 -88 99 -88 5 0 23 -13 41 -29 17 -17 32 -28 32 -25 0 3
15 -6 33 -20 19 -15 39 -26 45 -26 6 0 12 -4 14 -8 2 -4 26 -18 53 -30 28 -11
49 -26 47 -33 -2 -6 3 -9 11 -6 8 3 27 -1 43 -8 46 -20 68 -28 77 -27 4 1 7
-2 7 -8 0 -6 3 -9 8 -9 4 1 18 1 31 0 17 -1 22 -5 17 -17 -5 -13 -3 -14 7 -6
9 8 24 7 56 -4 42 -14 74 -22 99 -23 7 -1 11 -4 9 -8 -3 -5 11 -9 31 -10 20
-1 38 -7 40 -13 3 -8 8 -8 17 0 10 9 16 7 24 -8 6 -11 7 -23 3 -27 -4 -5 -2
-5 5 -1 7 4 10 13 7 21 -4 9 1 12 13 10 10 -1 17 -8 15 -14 -3 -15 15 -14 21
2 3 9 7 9 20 -2 12 -9 17 -10 17 -2 0 7 5 9 13 4 6 -4 23 -8 37 -9 15 0 24 -6
22 -14 -2 -10 0 -11 11 -2 10 8 30 9 76 1 34 -5 67 -6 73 -3 8 5 9 1 4 -11 -5
-14 -4 -16 7 -6 16 13 66 12 85 -2 8 -6 12 -5 12 3 0 8 4 9 13 3 6 -5 38 -8
69 -7 49 2 56 0 52 -14 -5 -15 -4 -15 5 -2 10 16 67 20 89 6 7 -4 12 -2 12 4
0 6 4 8 10 5 5 -3 58 -6 117 -6 64 0 112 -4 120 -11 10 -8 12 -8 8 3 -4 11 10
14 70 14 41 0 75 4 75 9 0 5 9 1 21 -10 13 -12 19 -14 17 -5 -2 7 3 16 11 19
10 3 11 0 5 -9 -6 -11 -5 -12 7 -3 8 7 43 15 79 18 36 3 83 10 106 14 22 5 48
8 57 6 9 -1 17 1 17 5 0 4 8 7 18 7 16 1 76 11 97 18 6 1 30 8 55 15 25 7 74
22 110 34 36 11 67 22 70 22 3 1 16 6 30 12 14 6 28 10 31 9 3 0 13 5 22 12 9
8 22 10 28 6 7 -4 9 -3 6 3 -6 10 68 49 86 45 4 -1 7 3 7 9 0 6 9 9 19 6 12
-3 18 0 16 7 -6 14 83 68 97 60 7 -4 8 -2 4 4 -3 6 0 14 7 19 29 17 93 70 145
120 30 29 59 50 65 46 6 -4 7 -1 2 6 -4 8 4 24 22 42 17 16 41 44 54 64 13 19
29 33 36 30 7 -2 15 1 19 7 4 6 3 8 -4 4 -23 -14 -20 12 5 40 14 16 30 41 35
56 6 16 13 26 17 23 4 -2 8 1 8 8 1 21 86 191 102 205 9 8 10 11 4 7 -16 -7
-16 -4 -3 30 5 14 13 24 18 21 4 -2 7 8 6 22 -1 15 5 39 13 54 7 15 14 31 16
35 1 5 6 7 11 5 5 -2 4 3 -2 11 -7 8 -9 17 -5 21 8 7 9 12 11 54 1 13 6 21 11
18 4 -3 7 8 5 24 -3 23 0 30 14 30 12 0 13 3 5 8 -9 6 -10 17 -4 40 11 38 11
36 11 68 0 14 3 23 8 21 4 -3 7 16 6 41 -1 57 4 74 20 65 8 -5 8 -3 0 8 -9 11
-12 87 -4 97 2 1 3 10 4 20 1 9 4 22 8 28 4 6 4 14 1 18 -11 10 -3 79 10 95 7
8 7 12 2 9 -7 -5 -11 48 -10 163 0 106 4 169 10 169 7 0 7 3 0 8 -12 9 -14
482 -2 482 5 0 5 6 0 13 -10 16 -10 1907 0 1907 5 0 5 6 0 13 -11 19 -10 457
2 457 7 0 7 3 0 8 -12 9 -14 482 -2 482 5 0 5 6 0 13 -11 19 -10 457 2 457 7
0 7 3 0 8 -12 9 -14 482 -2 482 5 0 5 6 0 12 -12 20 -10 1447 2 1440 6 -3 4 1
-2 10 -7 8 -10 18 -7 21 4 4 9 30 11 59 2 29 8 55 14 56 5 2 7 8 4 12 -10 15
39 141 52 136 7 -3 10 1 7 9 -3 7 2 25 12 40 13 20 19 23 26 13 7 -9 8 -8 4 5
-3 11 4 29 21 48 31 34 130 102 150 102 7 0 13 4 13 9 0 4 9 8 21 8 11 0 29 5
39 10 11 6 37 12 57 14 21 3 41 5 44 5 4 1 6 27 5 59 l-1 57 -529 3 c-346 1
-532 -1 -536 -8 -3 -5 -5 -27 -4 -47 1 -21 3 -45 3 -54 1 -11 9 -17 24 -17 34
1 86 -8 94 -15 3 -4 15 -7 25 -7 10 0 18 -4 18 -10 0 -5 8 -10 19 -10 10 0 24
-7 31 -15 7 -8 15 -13 19 -11 8 5 110 -90 128 -120 29 -45 74 -146 78 -171 2
-16 8 -41 14 -57 9 -22 8 -32 -1 -44 -8 -9 -8 -13 -2 -9 16 9 25 -28 11 -42
-6 -6 -7 -11 -2 -11 6 0 10 -69 10 -169 0 -101 -3 -167 -9 -164 -5 4 -6 0 0
-8 12 -19 12 -319 0 -312 -5 4 -6 1 0 -8 11 -19 12 -319 1 -312 -5 3 -5 -3 0
-13 11 -22 11 -134 0 -151 -4 -6 -4 -14 1 -16 9 -7 9 -448 -1 -464 -4 -6 -4
-14 1 -17 10 -6 9 -207 -1 -223 -4 -6 -4 -14 1 -17 10 -6 9 -207 -1 -223 -4
-6 -4 -14 1 -16 9 -7 9 -448 -1 -464 -4 -6 -4 -14 1 -17 10 -6 9 -207 -1 -223
-4 -6 -4 -14 1 -17 10 -6 9 -207 -1 -223 -4 -6 -4 -14 1 -16 9 -6 9 -448 0
-463 -4 -6 -4 -14 0 -18 11 -11 9 -305 -2 -299 -5 4 -6 0 0 -8 12 -19 12 -319
0 -312 -5 4 -6 1 0 -8 12 -19 12 -319 0 -312 -5 4 -6 1 0 -8 11 -19 12 -319 1
-312 -5 3 -5 -3 0 -13 11 -22 11 -214 0 -231 -4 -6 -4 -14 1 -17 10 -6 9 -207
-1 -223 -4 -6 -4 -14 1 -16 9 -7 9 -448 -1 -464 -4 -6 -4 -14 1 -17 10 -6 9
-297 -1 -313 -4 -6 -1 -14 5 -16 8 -3 9 -6 2 -6 -7 -1 -9 -12 -6 -27 3 -16 -1
-30 -9 -35 -12 -7 -12 -9 0 -9 11 0 11 -3 0 -17 -8 -10 -9 -14 -2 -10 8 5 11
0 10 -13 -1 -11 -4 -20 -7 -20 -3 0 -5 -12 -4 -27 1 -16 -1 -32 -3 -36 -3 -5
-7 -32 -9 -60 -2 -29 -6 -63 -9 -77 -3 -14 -7 -36 -9 -50 -2 -14 -9 -45 -16
-70 -7 -25 -14 -54 -17 -65 -21 -93 -56 -194 -66 -188 -6 3 -7 1 -4 -4 4 -6 0
-28 -9 -49 -9 -22 -15 -41 -14 -43 1 -2 -2 -7 -7 -10 -9 -6 -36 -60 -37 -74
-1 -4 -7 -11 -14 -16 -8 -5 -14 -12 -14 -17 -1 -17 -21 -54 -30 -54 -4 0 -8
-5 -8 -12 0 -29 -135 -189 -231 -273 -67 -59 -83 -71 -146 -111 -32 -21 -71
-46 -86 -57 -16 -10 -34 -20 -40 -21 -7 -1 -26 -10 -43 -19 -86 -45 -319 -121
-408 -133 -17 -2 -42 -6 -56 -9 -14 -3 -41 -8 -60 -10 -19 -3 -44 -8 -55 -10
-12 -2 -68 -7 -125 -10 -58 -4 -107 -8 -109 -11 -2 -2 -10 1 -18 7 -9 9 -13 8
-13 0 0 -8 -5 -9 -19 -1 -11 5 -22 6 -25 2 -3 -6 -181 -9 -181 -3 0 1 -54 3
-121 6 -67 2 -134 6 -150 9 -16 3 -67 10 -114 16 -80 10 -132 19 -155 24 -9 3
-84 19 -95 21 -17 3 -128 37 -145 44 -11 5 -56 23 -100 41 -44 19 -93 43 -110
54 -16 12 -32 20 -35 20 -19 -4 -175 118 -238 185 -23 25 -51 55 -62 66 -11
12 -20 24 -20 28 0 8 -7 17 -40 56 -54 63 -178 342 -205 461 -1 3 -4 19 -8 35
-4 17 -9 40 -12 53 -2 13 -6 31 -9 40 -3 9 -8 31 -11 47 -2 17 -7 39 -9 50 -2
11 -7 43 -10 70 -4 28 -9 61 -11 75 -13 86 -21 180 -29 339 -3 63 -8 116 -10
119 -3 2 -1 15 4 28 5 13 6 24 1 24 -11 0 -10 33 2 48 5 7 5 12 0 12 -5 0 -9
20 -8 44 0 24 3 42 7 39 5 -2 3 8 -2 23 -9 21 -7 29 7 40 13 10 14 14 3 12
-11 -2 -14 9 -15 47 0 28 3 57 7 66 4 9 4 20 0 23 -4 4 -7 38 -8 76 0 62 1 68
15 57 14 -11 14 -10 2 6 -15 19 -22 139 -9 160 3 6 2 21 -3 35 -7 19 -6 28 8
38 12 10 13 13 4 12 -10 -2 -15 9 -16 40 -2 38 -1 41 14 30 14 -12 15 -11 1 6
-11 14 -14 51 -15 156 0 76 3 136 7 133 5 -2 3 8 -2 23 -9 21 -7 29 7 40 13
10 14 14 3 12 -11 -2 -14 9 -15 47 0 28 3 57 7 66 4 9 4 20 0 23 -4 4 -7 38
-8 76 0 62 1 68 15 57 14 -11 14 -10 2 6 -15 19 -22 139 -9 160 3 6 2 21 -3
35 -7 19 -6 28 8 38 12 10 13 13 4 12 -10 -2 -15 9 -16 40 -2 38 -1 41 14 30
14 -12 15 -11 1 6 -11 14 -14 51 -15 156 0 76 3 136 7 133 5 -2 3 8 -2 23 -9
21 -7 29 7 40 13 10 14 14 3 12 -11 -2 -14 9 -15 47 0 28 3 57 7 66 4 9 4 20
0 23 -4 4 -7 38 -8 76 0 62 1 68 15 57 14 -11 14 -10 2 6 -15 19 -22 139 -9
160 3 6 2 21 -3 35 -7 19 -6 28 8 38 12 10 13 13 4 12 -10 -2 -15 9 -16 40 -2
38 -1 41 14 30 14 -12 15 -11 1 6 -11 14 -14 51 -15 156 0 76 3 136 7 133 5
-2 3 8 -2 23 -9 21 -7 29 7 40 13 10 14 14 3 12 -11 -2 -14 9 -15 47 0 28 3
57 7 66 4 9 4 20 0 23 -4 4 -7 38 -8 76 0 62 1 68 15 57 14 -11 14 -10 2 6
-15 19 -22 139 -9 160 3 6 2 21 -3 35 -7 19 -6 28 8 38 12 10 13 13 4 12 -10
-2 -15 9 -16 40 -2 38 -1 41 14 30 14 -12 15 -11 1 6 -11 14 -14 51 -15 156 0
76 3 136 7 133 5 -2 3 8 -2 23 -9 21 -7 29 7 40 13 10 14 14 3 12 -11 -2 -14
9 -15 47 0 28 3 57 7 66 4 9 4 20 0 23 -4 4 -7 38 -8 76 0 62 1 68 15 57 14
-11 14 -10 2 6 -15 19 -22 139 -9 160 3 6 2 21 -3 35 -7 19 -6 28 8 38 12 10
13 13 4 12 -10 -2 -15 9 -16 40 -2 38 -1 41 14 30 14 -12 15 -11 1 6 -11 14
-14 51 -15 156 0 76 3 136 7 133 5 -2 3 8 -2 23 -9 21 -7 29 7 40 13 10 14 14
3 12 -11 -2 -14 9 -15 47 0 28 3 57 7 66 4 9 4 20 0 23 -4 4 -7 38 -8 76 0 62
1 68 15 57 14 -11 14 -10 2 6 -15 19 -22 139 -9 160 3 6 2 21 -3 35 -7 19 -6
28 8 38 12 10 13 13 4 12 -10 -2 -15 9 -16 40 -2 38 -1 41 14 30 14 -12 15
-11 2 5 -17 22 -23 150 -7 140 8 -5 8 -2 1 8 -12 16 -13 39 -2 56 4 6 3 14 -3
18 -6 4 -8 11 -4 16 3 6 7 33 8 60 1 32 7 53 16 59 12 8 12 10 1 10 -10 0 -11
4 -3 13 11 13 12 17 12 43 0 9 5 12 13 8 9 -5 9 -4 1 6 -9 9 -8 20 5 43 9 18
19 34 24 35 4 2 5 8 1 13 -3 5 0 9 5 9 6 0 10 4 8 8 -4 15 45 72 56 65 6 -3 7
-1 3 5 -4 6 2 19 12 29 29 28 62 53 68 53 3 0 12 7 20 15 21 20 51 21 35 1 -9
-11 -9 -16 0 -22 7 -4 9 -3 5 4 -3 6 -2 13 4 17 6 4 8 11 5 16 -6 8 8 13 28
10 4 0 7 4 7 9 0 5 3 9 8 9 4 -1 9 0 12 1 7 2 37 8 87 15 l42 6 -2 57 -3 57
-657 3 c-361 1 -657 1 -658 0z"/>
<path d="M18829 21616 c-1 -3 -2 -30 -3 -60 -1 -52 0 -55 28 -60 16 -3 39 -6
52 -6 13 0 24 -4 24 -8 0 -4 12 -9 27 -10 15 -1 30 -8 35 -15 4 -6 8 -9 8 -4
0 15 96 -42 135 -80 67 -66 79 -84 64 -95 -11 -6 -9 -8 6 -6 12 2 19 -2 18 -9
-2 -7 1 -13 6 -13 16 0 30 -56 18 -69 -9 -9 -7 -10 7 -5 16 6 18 4 13 -9 -4
-10 -2 -17 5 -17 6 0 8 -3 5 -6 -3 -4 -2 -14 3 -23 4 -9 11 -37 15 -61 4 -25
9 -48 11 -52 3 -5 -1 -8 -8 -8 -8 0 -9 -3 -3 -8 14 -10 15 -694 0 -704 -6 -5
-7 -8 0 -8 7 0 10 -102 10 -294 0 -174 -4 -292 -9 -289 -5 4 -5 0 0 -8 12 -20
12 -199 -1 -199 -7 0 -6 -3 1 -8 14 -10 13 -464 -1 -474 -7 -5 -7 -8 0 -8 7 0
10 -102 10 -294 0 -174 -4 -292 -9 -289 -5 4 -5 0 0 -8 12 -20 12 -199 -1
-199 -7 0 -6 -3 1 -8 14 -10 13 -464 -1 -474 -7 -5 -7 -8 0 -8 7 0 10 -102 10
-294 0 -174 -4 -292 -9 -289 -5 4 -5 0 0 -8 12 -20 12 -199 -1 -199 -7 0 -6
-3 1 -8 14 -10 13 -464 -1 -474 -7 -5 -7 -8 0 -8 7 0 10 -102 10 -294 0 -174
-4 -292 -9 -289 -5 4 -5 0 0 -8 12 -20 12 -199 -1 -199 -7 0 -6 -3 1 -8 14
-10 13 -464 -1 -474 -7 -5 -7 -8 0 -8 7 0 10 -102 10 -294 0 -174 -4 -292 -9
-289 -5 4 -5 0 0 -8 12 -20 12 -192 -1 -201 -7 -5 -7 -8 0 -8 12 0 14 -448 2
-467 -4 -6 -3 -15 3 -18 6 -4 8 -14 6 -23 -3 -10 -8 -35 -11 -57 -12 -80 -49
-168 -105 -245 -36 -51 -121 -130 -139 -130 -5 0 -14 -7 -21 -15 -7 -8 -16
-12 -21 -9 -5 3 -9 1 -9 -4 0 -8 -11 -13 -62 -27 -5 -2 -9 -3 -10 -5 -3 -2
-19 -5 -60 -13 -15 -3 -31 -8 -36 -11 -6 -4 -8 -46 -3 -106 1 -13 22 -15 128
-13 101 1 132 -2 145 -14 12 -11 18 -11 24 -2 4 7 3 10 -4 5 -6 -3 -13 -2 -16
2 -3 5 57 9 134 9 107 0 137 -2 133 -12 -2 -7 0 -16 5 -19 5 -3 9 2 8 11 -2
23 51 29 75 7 11 -9 19 -12 19 -6 0 6 -6 13 -12 15 -7 3 -1 6 15 6 30 1 34 -7
15 -29 -7 -8 -2 -6 11 5 20 17 40 20 150 21 81 1 131 -2 140 -10 11 -8 13 -8
8 0 -5 8 39 11 157 11 90 0 169 3 175 7 10 7 12 115 1 117 -3 0 -14 2 -25 4
-11 2 -31 6 -45 9 -14 2 -25 5 -25 6 0 1 -11 3 -25 6 -51 8 -151 67 -205 120
-31 30 -53 59 -50 64 4 6 2 10 -4 10 -13 0 -42 55 -34 64 4 3 1 6 -5 6 -7 0
-12 9 -12 19 0 11 -5 23 -10 26 -8 5 -7 12 2 23 10 12 10 14 1 8 -8 -4 -13 -2
-14 6 0 7 -2 22 -5 33 -2 11 -6 34 -9 50 -7 46 -7 4924 0 4936 4 6 32 9 66 7
32 -2 59 0 59 5 0 6 5 6 13 1 6 -5 26 -8 42 -7 44 4 159 3 163 -2 2 -2 14 0
26 5 13 4 29 4 36 0 9 -5 20 -5 27 1 7 6 17 8 23 4 18 -11 70 -12 70 -2 0 5 6
4 13 -2 8 -6 16 -8 20 -5 8 8 40 -4 63 -24 11 -9 29 -22 40 -29 10 -6 18 -16
16 -23 -1 -6 2 -9 8 -5 13 8 70 -35 70 -52 0 -8 4 -12 9 -9 11 7 167 -142 164
-155 -2 -5 3 -9 10 -9 13 0 43 -40 39 -52 -1 -5 5 -8 13 -8 8 0 15 -4 15 -8 0
-5 9 -20 21 -33 12 -13 42 -53 67 -89 26 -36 50 -66 54 -68 5 -2 8 -10 8 -18
0 -8 5 -14 11 -14 6 0 8 -7 5 -17 -4 -10 -4 -14 0 -10 10 10 36 -31 28 -45 -4
-6 -3 -8 4 -4 6 3 16 -7 24 -24 7 -16 17 -30 21 -30 5 0 6 -4 3 -9 -4 -5 -2
-11 2 -13 12 -4 95 -149 95 -165 0 -7 5 -13 10 -13 5 0 6 -7 3 -16 -3 -8 -2
-13 3 -10 11 7 23 -22 15 -35 -3 -5 -2 -9 3 -8 22 4 25 -2 7 -16 -19 -14 -19
-14 1 -9 17 4 25 -7 50 -63 17 -37 29 -77 27 -88 -1 -15 0 -17 7 -6 7 11 10
10 15 -5 3 -11 5 -23 5 -28 0 -5 3 -12 8 -15 18 -13 43 -84 38 -105 -4 -14 -3
-17 3 -8 6 9 20 -14 46 -77 21 -50 36 -92 34 -94 -2 -2 3 -11 11 -20 7 -10 10
-17 5 -17 -5 0 -3 -4 4 -9 7 -4 14 -18 15 -29 1 -12 5 -22 9 -22 4 0 8 -9 8
-19 0 -11 4 -21 10 -23 5 -1 11 -15 12 -30 1 -16 6 -28 10 -28 4 0 8 -9 8 -19
0 -11 5 -23 10 -26 6 -3 10 -15 10 -26 0 -13 -4 -18 -12 -13 -7 4 -8 3 -4 -5
4 -6 12 -9 17 -6 5 4 12 -2 15 -12 3 -10 17 -46 30 -81 14 -35 21 -68 18 -74
-4 -7 -2 -8 4 -4 8 4 12 0 12 -11 0 -11 6 -25 13 -32 10 -11 9 -12 -3 -6 -12
7 -12 5 1 -11 9 -10 14 -25 12 -31 -3 -7 0 -13 5 -13 6 0 13 -14 17 -31 4 -16
18 -57 31 -89 13 -33 26 -68 28 -77 4 -21 13 -45 33 -91 8 -18 12 -40 9 -48
-3 -9 -1 -12 4 -9 9 5 12 -8 9 -31 0 -4 5 -10 11 -14 7 -4 13 -19 13 -34 0
-14 3 -26 8 -26 5 0 9 -9 9 -19 0 -11 5 -23 10 -26 6 -3 10 -17 10 -31 0 -13
5 -24 11 -24 8 0 7 -6 -2 -17 -10 -11 -10 -14 -1 -9 11 7 16 -6 15 -41 -1 -7
3 -11 7 -8 6 4 32 -63 34 -90 1 -5 5 -13 9 -16 5 -3 9 -12 10 -20 2 -8 6 -20
10 -26 5 -7 5 -17 2 -23 -3 -5 -1 -10 5 -10 6 0 8 -4 5 -10 -3 -5 -1 -10 4
-10 6 0 10 -3 9 -7 -2 -9 9 -49 22 -78 27 -60 39 -98 34 -106 -3 -5 0 -9 6 -9
6 0 8 -4 5 -10 -3 -5 -1 -10 6 -10 8 0 8 -4 1 -13 -9 -10 -6 -18 9 -30 11 -10
17 -22 14 -27 -3 -6 -2 -10 4 -10 6 0 8 -6 5 -14 -3 -8 -1 -17 5 -21 6 -3 11
-15 11 -26 0 -10 4 -19 8 -19 13 0 12 -43 -1 -60 -11 -13 -10 -13 5 -1 15 11
19 11 24 -5 3 -11 12 -33 20 -51 8 -17 14 -38 14 -47 0 -9 5 -16 11 -16 5 0 8
-4 5 -8 -3 -5 3 -26 14 -48 10 -21 20 -48 22 -59 2 -11 8 -23 13 -27 6 -5 5
-16 -4 -30 -13 -20 -12 -22 1 -11 19 17 31 4 15 -15 -7 -10 -8 -13 -1 -9 10 5
36 -38 39 -63 1 -4 15 -36 62 -137 8 -17 15 -37 17 -45 1 -7 16 -41 34 -76 18
-34 30 -62 27 -62 -3 0 2 -11 11 -25 9 -14 12 -25 8 -25 -5 0 -4 -4 1 -8 15
-11 35 -50 35 -67 0 -10 5 -13 13 -9 6 4 9 4 5 0 -4 -5 22 -64 58 -133 35 -68
61 -129 58 -135 -4 -6 -3 -8 2 -5 6 3 21 -15 34 -41 14 -26 40 -73 58 -104 19
-32 31 -62 26 -69 -4 -8 -3 -9 5 -5 6 4 14 0 18 -11 4 -10 9 -20 13 -23 3 -3
25 -36 48 -74 34 -54 40 -71 30 -78 -9 -7 -8 -8 5 -4 11 4 20 -1 24 -12 4 -9
13 -23 20 -31 16 -15 11 -37 -6 -33 -7 1 -9 -3 -6 -9 5 -8 10 -8 18 0 8 8 16
6 29 -6 17 -15 17 -17 0 -29 -15 -12 -15 -12 5 -7 17 4 25 -1 34 -21 7 -14 17
-26 22 -26 6 0 8 -3 4 -6 -3 -4 1 -13 9 -21 8 -8 12 -19 9 -24 -4 -5 1 -6 9
-3 11 4 16 0 16 -10 0 -9 9 -24 20 -33 11 -10 20 -23 20 -31 0 -7 5 -10 10 -7
6 3 10 3 10 -2 0 -8 31 -47 71 -90 11 -13 17 -28 13 -34 -4 -7 -3 -9 3 -6 12
7 46 -26 38 -36 -3 -4 -2 -5 2 -2 9 7 34 -16 27 -26 -3 -5 -2 -8 3 -7 4 2 49
-37 98 -86 50 -49 84 -86 76 -81 -10 5 -12 4 -7 -4 4 -6 12 -9 17 -6 5 4 23
-6 39 -22 75 -71 89 -83 99 -83 5 0 19 -11 30 -26 11 -14 21 -24 23 -23 4 3
59 -32 76 -48 7 -7 18 -13 24 -13 5 0 8 -6 5 -12 -3 -8 4 -14 17 -14 27 -2 97
-49 88 -59 -4 -5 -2 -5 5 -2 6 4 18 1 26 -7 8 -8 17 -12 21 -9 3 4 6 1 6 -6 0
-7 4 -10 9 -6 5 3 17 -3 27 -12 10 -10 20 -17 23 -17 3 1 5 -1 4 -5 -1 -3 10
-7 24 -8 14 0 29 -6 33 -13 4 -6 10 -12 13 -12 20 0 47 -12 47 -21 0 -6 2 -8
6 -5 3 3 41 -10 85 -28 44 -19 87 -34 95 -34 9 0 13 -4 10 -9 -3 -5 0 -9 7 -8
35 1 58 -4 53 -12 -3 -4 5 -7 18 -6 14 2 35 -3 48 -9 13 -7 43 -15 65 -18 37
-5 41 -4 38 13 -2 10 0 19 4 19 4 0 8 6 9 13 0 6 3 21 7 33 6 18 -7 28 -107
78 -116 59 -277 155 -314 188 -11 10 -26 18 -32 18 -7 0 -12 4 -12 8 0 4 -12
15 -27 24 -16 9 -40 28 -55 42 -15 14 -29 26 -32 26 -23 0 -379 363 -410 419
-5 9 -13 18 -17 21 -7 5 -94 119 -129 171 -8 11 -23 32 -32 44 -10 13 -18 28
-18 34 0 6 -4 11 -8 11 -5 0 -21 21 -36 48 -15 26 -35 59 -44 74 -24 37 -96
161 -101 173 -2 6 -12 22 -23 37 -11 16 -16 33 -12 39 4 7 3 9 -3 6 -5 -3 -26
29 -47 71 -20 42 -41 84 -46 92 -19 31 -170 358 -170 368 0 4 -6 19 -14 33 -8
15 -28 65 -46 110 -18 46 -36 89 -40 94 -4 6 -19 42 -33 80 -24 69 -71 190
-87 230 -33 78 -99 269 -96 273 3 2 -2 11 -10 19 -8 9 -13 21 -10 29 3 7 1 14
-4 16 -4 2 -10 12 -12 23 -1 11 -5 22 -8 25 -7 7 -71 191 -73 210 -1 8 -5 17
-9 20 -3 3 -8 14 -10 25 -1 11 -5 22 -8 25 -8 7 -73 202 -73 217 0 7 -4 13 -8
13 -7 0 -24 49 -21 63 1 4 -3 7 -10 7 -6 0 -9 3 -5 6 3 3 -3 26 -14 51 -11 25
-20 56 -21 69 -1 13 -5 24 -9 24 -7 0 -35 82 -31 93 1 4 -2 7 -7 7 -8 0 -25
53 -24 78 0 6 -2 12 -6 12 -4 0 -25 44 -45 98 -21 53 -44 111 -52 129 -8 17
-14 33 -14 36 0 3 -5 18 -12 34 -6 15 -12 30 -12 33 -1 3 -6 12 -11 20 -9 15
-15 34 -17 58 -1 6 -5 12 -9 12 -6 0 -17 22 -24 50 -1 3 -12 28 -25 55 -12 28
-23 56 -23 63 0 6 -4 12 -9 12 -4 0 -8 9 -8 21 0 11 -4 17 -10 14 -5 -3 -10 1
-10 10 0 9 -8 30 -17 48 -9 18 -18 34 -18 37 -1 6 -41 88 -54 110 -5 8 -21 40
-36 70 -15 30 -39 75 -53 100 -13 25 -35 63 -47 85 -51 93 -60 109 -68 119 -4
6 -39 58 -77 116 -77 116 -94 141 -127 181 -13 15 -23 31 -23 37 0 6 -3 12 -8
14 -4 2 -42 44 -84 94 -97 115 -318 337 -318 319 0 -2 -13 9 -28 23 -37 36
-66 58 -92 72 -12 6 -19 17 -17 25 4 9 -1 11 -14 8 -10 -3 -19 0 -19 6 0 6 -6
11 -13 11 -7 0 -20 9 -30 20 -9 11 -23 20 -31 20 -7 0 -19 7 -26 15 -13 16 -6
17 110 17 25 0 48 6 52 12 5 8 8 7 8 -2 0 -7 5 -10 11 -6 6 3 25 8 42 10 63 7
93 12 135 23 23 7 47 9 52 6 6 -3 10 -1 10 4 0 6 9 11 20 11 11 0 45 9 75 19
30 11 55 17 55 14 0 -3 6 0 13 6 8 6 17 8 20 4 4 -3 7 -1 7 5 0 7 3 11 8 10 4
-1 20 4 35 10 16 7 32 10 37 7 5 -3 10 -2 12 3 1 4 21 19 42 32 25 15 37 18
32 9 -6 -11 -5 -11 6 1 7 8 18 16 24 17 6 1 41 23 78 48 36 25 71 46 78 48 6
1 22 12 36 24 13 13 30 20 36 16 6 -3 8 -3 4 1 -4 5 -1 14 5 21 9 10 15 10 26
1 12 -9 13 -8 7 2 -10 16 95 120 115 113 6 -2 9 1 5 7 -4 6 16 34 44 63 27 28
50 54 50 58 0 3 15 23 34 44 49 56 166 257 171 292 0 6 7 9 15 7 11 -3 11 0 0
12 -8 11 -9 16 -1 16 6 0 11 9 11 19 0 11 6 26 13 33 6 7 12 18 12 23 1 24 38
134 44 131 4 -3 7 4 7 15 0 10 -4 19 -9 19 -5 0 -5 6 1 13 11 12 21 54 27 107
2 14 4 25 5 25 1 0 3 21 4 47 1 26 4 49 6 52 4 4 4 211 0 211 -1 0 -3 10 -6
23 -2 13 1 22 9 22 9 0 9 2 -1 8 -7 5 -15 24 -17 43 -2 19 -7 45 -11 59 -3 14
-7 35 -8 48 0 12 -4 22 -8 22 -5 0 -8 5 -8 11 0 22 -54 146 -93 214 -85 148
-238 317 -367 405 -13 8 -28 20 -34 26 -6 5 -27 19 -46 30 -19 10 -37 22 -40
25 -6 7 -188 100 -250 127 -95 42 -300 100 -405 116 -40 6 -73 12 -130 23 -39
7 -1915 16 -1916 9z m1524 -119 c59 -1 107 2 107 6 0 5 4 5 10 2 5 -3 56 -8
112 -11 156 -8 158 -8 158 -15 0 -4 17 -9 38 -12 66 -8 172 -38 172 -48 0 -3
6 -6 14 -6 8 0 31 -8 52 -18 22 -11 45 -20 51 -21 7 -1 20 -9 29 -18 8 -9 22
-16 29 -16 7 0 20 -6 27 -12 7 -7 25 -19 39 -26 14 -8 39 -24 55 -37 16 -13
45 -37 64 -52 30 -24 112 -106 154 -153 7 -8 21 -28 32 -45 10 -16 22 -32 25
-35 18 -13 68 -113 63 -122 -4 -7 -2 -8 4 -4 6 4 16 -4 23 -16 7 -13 11 -23 9
-23 -1 0 7 -21 19 -47 12 -26 18 -54 14 -64 -4 -10 -2 -15 3 -11 6 3 15 -7 21
-24 7 -18 8 -29 1 -29 -5 0 -3 -7 6 -15 8 -8 13 -24 11 -35 -2 -11 1 -20 7
-20 6 0 9 -3 6 -6 -4 -3 -2 -19 2 -35 5 -17 5 -31 -1 -35 -6 -3 -5 -12 3 -21
16 -20 19 -43 5 -43 -9 0 -9 -2 -1 -8 14 -9 14 -43 0 -61 -8 -11 -8 -13 2 -7
9 5 12 -14 12 -83 0 -66 -3 -91 -12 -91 -9 0 -9 -3 -2 -8 5 -4 9 -23 7 -42 -2
-19 -5 -60 -7 -90 -2 -30 -5 -55 -6 -55 -2 0 -4 -13 -5 -30 -2 -16 -4 -30 -5
-30 -1 0 -4 -18 -6 -40 -3 -22 -9 -42 -15 -43 -5 -2 -7 -7 -5 -11 3 -4 0 -25
-5 -47 -5 -21 -11 -46 -13 -55 -14 -55 -30 -99 -38 -99 -5 0 -7 -4 -4 -9 6
-10 -37 -115 -44 -107 -3 2 -6 -7 -7 -22 0 -14 -9 -31 -18 -38 -9 -7 -16 -16
-15 -21 1 -13 -34 -73 -42 -73 -5 0 -8 -6 -8 -14 0 -8 -6 -21 -12 -28 -7 -7
-29 -33 -49 -58 -54 -67 -158 -168 -180 -175 -10 -4 -19 -11 -19 -16 0 -5 -5
-9 -12 -9 -6 0 -19 -6 -27 -14 -14 -12 -46 -32 -107 -64 -53 -29 -174 -74
-174 -66 0 2 -8 0 -18 -5 -11 -6 -32 -13 -48 -16 -54 -10 -89 -17 -114 -22
-14 -3 -256 -7 -537 -10 l-513 -4 0 143 c-1 217 -1 2418 0 2460 l0 37 275 -2
c151 -1 275 1 275 5 0 4 6 5 13 2 8 -3 62 -6 120 -7z"/>
<path d="M19950 21456 c0 -2 8 -10 18 -17 15 -13 16 -12 3 4 -13 16 -21 21
-21 13z"/>
<path d="M20035 21449 c-4 -6 -5 -12 -2 -15 2 -3 7 2 10 11 7 17 1 20 -8 4z"/>
<path d="M20113 21445 c0 -8 4 -12 9 -9 5 3 6 10 3 15 -9 13 -12 11 -12 -6z"/>
<path d="M20896 21407 c3 -10 9 -15 12 -12 3 3 0 11 -7 18 -10 9 -11 8 -5 -6z"/>
<path d="M19870 21400 c0 -5 5 -10 11 -10 5 0 7 5 4 10 -3 6 -8 10 -11 10 -2
0 -4 -4 -4 -10z"/>
<path d="M19950 21400 c0 -5 5 -10 11 -10 5 0 7 5 4 10 -3 6 -8 10 -11 10 -2
0 -4 -4 -4 -10z"/>
<path d="M20275 21400 c-3 -5 -1 -10 4 -10 6 0 11 5 11 10 0 6 -2 10 -4 10 -3
0 -8 -4 -11 -10z"/>
<path d="M20350 21399 c0 -5 5 -7 10 -4 6 3 10 8 10 11 0 2 -4 4 -10 4 -5 0
-10 -5 -10 -11z"/>
<path d="M20430 21400 c0 -5 5 -10 11 -10 5 0 7 5 4 10 -3 6 -8 10 -11 10 -2
0 -4 -4 -4 -10z"/>
<path d="M19699 21388 c-5 -18 -6 -38 -1 -34 7 8 12 36 6 36 -2 0 -4 -1 -5 -2z"/>
<path d="M20977 21355 c-4 -8 -3 -16 1 -19 4 -3 9 4 9 15 2 23 -3 25 -10 4z"/>
<path d="M19753 21335 c0 -8 4 -12 9 -9 5 3 6 10 3 15 -9 13 -12 11 -12 -6z"/>
<path d="M20973 21295 c0 -8 4 -12 9 -9 5 3 6 10 3 15 -9 13 -12 11 -12 -6z"/>
<path d="M21090 21300 c0 -5 5 -10 11 -10 5 0 7 5 4 10 -3 6 -8 10 -11 10 -2
0 -4 -4 -4 -10z"/>
<path d="M21155 21179 c-3 -4 2 -6 10 -5 21 3 28 13 10 13 -9 0 -18 -4 -20 -8z"/>
<path d="M21215 21180 c3 -5 8 -10 11 -10 2 0 4 5 4 10 0 6 -5 10 -11 10 -5 0
-7 -4 -4 -10z"/>
<path d="M21375 21131 c-3 -5 -2 -12 3 -15 5 -3 9 1 9 9 0 17 -3 19 -12 6z"/>
<path d="M21196 21082 c-3 -5 1 -9 9 -9 8 0 12 4 9 9 -3 4 -7 8 -9 8 -2 0 -6
-4 -9 -8z"/>
<path d="M21433 20993 c0 -9 4 -10 14 -2 7 6 13 12 13 14 0 1 -6 2 -13 2 -8 0
-14 -6 -14 -14z"/>
<path d="M21456 20942 c-3 -5 1 -9 9 -9 8 0 12 4 9 9 -3 4 -7 8 -9 8 -2 0 -6
-4 -9 -8z"/>
<path d="M21495 20940 c3 -5 8 -10 11 -10 2 0 4 5 4 10 0 6 -5 10 -11 10 -5 0
-7 -4 -4 -10z"/>
<path d="M21427 20919 c7 -7 15 -10 18 -7 3 3 -2 9 -12 12 -14 6 -15 5 -6 -5z"/>
<path d="M21575 20820 c3 -5 8 -10 11 -10 2 0 4 5 4 10 0 6 -5 10 -11 10 -5 0
-7 -4 -4 -10z"/>
<path d="M21566 20778 c3 -5 10 -6 15 -3 13 9 11 12 -6 12 -8 0 -12 -4 -9 -9z"/>
<path d="M21616 20742 c-3 -5 1 -9 9 -9 8 0 12 4 9 9 -3 4 -7 8 -9 8 -2 0 -6
-4 -9 -8z"/>
<path d="M21675 20011 c-3 -5 -2 -12 3 -15 5 -3 9 1 9 9 0 17 -3 19 -12 6z"/>
<path d="M29578 21613 c0 -4 -2 -33 -2 -63 l-2 -55 60 -3 c33 -1 63 -7 67 -13
4 -8 8 -7 11 2 3 8 9 9 18 4 13 -8 53 -16 93 -18 9 -1 17 -5 17 -10 0 -4 4 -6
9 -3 11 7 124 -28 116 -36 -4 -3 0 -6 7 -5 40 1 59 -4 52 -15 -4 -7 -3 -8 5
-4 6 4 23 1 36 -8 13 -9 29 -16 35 -16 12 0 115 -65 137 -86 7 -6 9 -15 5 -18
-3 -4 2 -4 12 0 15 6 17 3 12 -17 -3 -13 -3 -18 0 -11 8 17 24 15 24 -3 0 -8
6 -14 13 -12 6 1 11 -6 11 -15 -1 -11 5 -18 17 -18 11 0 19 -7 19 -15 0 -8 5
-15 10 -15 6 0 10 -7 10 -15 0 -8 4 -15 8 -15 11 0 43 -56 35 -64 -3 -3 -1 -6
6 -6 8 0 11 -6 7 -16 -3 -8 -2 -13 3 -10 4 3 16 -13 26 -35 15 -32 16 -42 6
-49 -9 -5 -10 -10 -2 -14 6 -4 11 -2 11 5 0 10 3 10 12 1 8 -8 8 -15 -2 -27
-11 -13 -10 -14 5 -8 14 5 17 3 12 -10 -4 -10 -2 -17 4 -17 6 0 9 -7 5 -15 -3
-8 -1 -15 3 -15 5 0 12 -7 15 -16 4 -10 2 -13 -7 -8 -7 5 -6 1 3 -10 19 -25
23 -55 8 -75 -11 -14 -11 -14 4 -3 18 15 14 23 49 -109 7 -27 9 -54 4 -65 -10
-24 -12 -30 -14 -50 0 -9 -6 -12 -13 -8 -7 4 -8 3 -4 -4 6 -11 -41 -179 -54
-192 -3 -3 -7 -14 -8 -25 -2 -11 -7 -22 -10 -25 -4 -3 -7 -11 -8 -17 -1 -7 -2
-22 -2 -34 -1 -11 -6 -17 -12 -14 -5 3 -7 0 -5 -8 3 -7 -2 -31 -11 -53 -9 -21
-16 -41 -16 -44 -1 -6 2 2 -44 -140 -21 -63 -39 -123 -41 -133 -2 -10 -10 -31
-18 -48 -9 -16 -13 -29 -9 -29 4 0 1 -7 -6 -15 -7 -8 -10 -15 -7 -15 3 0 -10
-44 -29 -97 -19 -54 -37 -107 -39 -117 -5 -23 -24 -86 -32 -106 -4 -8 -5 -18
-5 -22 1 -5 -3 -8 -9 -8 -5 0 -8 -4 -5 -9 6 -10 -18 -74 -25 -67 -2 2 -4 -5
-5 -17 -2 -30 -8 -60 -16 -73 -4 -6 -9 -22 -12 -36 -2 -15 -9 -35 -15 -46 -6
-11 -7 -22 -4 -26 3 -3 0 -6 -7 -6 -7 0 -11 -3 -8 -6 3 -3 -10 -51 -29 -107
-19 -56 -36 -109 -38 -117 -2 -8 -4 -16 -5 -17 -3 -3 -2 -1 -19 -65 -8 -28
-18 -45 -24 -41 -6 3 -7 1 -3 -6 4 -6 -2 -36 -13 -66 -11 -30 -18 -55 -15 -55
4 0 2 -6 -4 -12 -5 -7 -13 -28 -17 -45 -3 -18 -11 -33 -16 -33 -6 0 -7 -5 -4
-10 4 -6 -5 -41 -18 -78 -14 -37 -43 -122 -64 -189 -21 -67 -41 -119 -45 -117
-4 3 -5 -1 -2 -9 2 -7 -1 -27 -7 -43 -7 -16 -13 -31 -13 -34 -2 -9 -48 -155
-54 -170 -3 -8 -6 -18 -7 -22 -2 -5 -4 -10 -5 -13 -1 -3 -3 -8 -5 -12 -14 -52
-18 -62 -25 -58 -5 3 -6 -3 -3 -14 3 -10 -2 -32 -11 -49 -8 -16 -18 -43 -21
-60 -3 -17 -10 -44 -16 -59 -6 -15 -11 -30 -11 -33 0 -3 -18 -54 -38 -115 -20
-60 -43 -131 -51 -157 -7 -27 -17 -48 -21 -48 -4 0 -5 -7 -2 -15 4 -8 1 -15
-6 -15 -6 0 -8 -5 -5 -10 4 -6 1 -17 -5 -25 -7 -8 -10 -15 -6 -15 3 0 -5 -29
-19 -65 -13 -36 -22 -65 -18 -65 3 0 0 -7 -7 -15 -7 -8 -9 -15 -4 -15 4 0 3
-5 -4 -12 -7 -7 -12 -20 -12 -31 0 -10 -4 -15 -10 -12 -6 3 -7 -1 -4 -10 4 -9
2 -26 -4 -38 -6 -12 -34 -96 -63 -187 -29 -91 -55 -167 -58 -170 -3 -3 -6 -9
-6 -15 -1 -32 -18 -74 -27 -69 -6 4 -8 2 -4 -4 8 -13 -15 -103 -25 -97 -3 3
-6 -3 -6 -13 0 -42 -3 -53 -15 -46 -7 4 -8 3 -4 -4 8 -13 -73 -265 -86 -270
-5 -2 -6 -7 -3 -12 3 -4 -8 -44 -24 -89 -16 -45 -27 -81 -25 -81 3 0 -2 -13
-11 -30 -9 -16 -13 -30 -10 -30 3 0 0 -10 -7 -22 -7 -13 -13 -25 -13 -28 -5
-30 -30 -110 -35 -110 -3 0 -6 -10 -7 -21 -2 -23 -24 -94 -54 -173 -11 -27
-19 -56 -19 -66 0 -9 -3 -20 -7 -24 -8 -8 -9 -13 -12 -42 0 -9 -6 -12 -13 -8
-6 4 -8 3 -5 -4 4 -5 -20 -93 -54 -194 -33 -100 -62 -188 -63 -195 -1 -7 -5
-16 -9 -19 -4 -4 -7 -17 -7 -29 0 -12 -3 -25 -7 -29 -5 -4 -8 -11 -9 -14 -6
-38 -18 -72 -25 -72 -5 0 -6 -7 -3 -15 4 -8 1 -15 -6 -15 -6 0 -9 -4 -6 -9 3
-4 -10 -53 -29 -107 -19 -54 -35 -107 -35 -116 0 -10 -5 -18 -10 -18 -6 0 -9
-3 -9 -7 4 -23 -2 -43 -11 -38 -5 3 -7 0 -4 -8 2 -7 -1 -27 -7 -43 -7 -16 -13
-33 -14 -39 -1 -5 -3 -13 -5 -17 -1 -5 -3 -11 -5 -15 -1 -5 -4 -15 -7 -23 -3
-8 -31 -94 -63 -190 -31 -96 -63 -188 -70 -205 -7 -16 -20 -49 -30 -72 -10
-24 -22 -43 -27 -43 -4 0 -7 -3 -6 -7 4 -14 -40 -88 -70 -121 -16 -17 -28 -33
-25 -35 6 -6 -110 -108 -121 -106 -5 0 -12 -4 -15 -9 -16 -25 -177 -88 -251
-97 -43 -6 -93 -16 -100 -20 -7 -4 -5 -103 3 -111 3 -3 129 -6 281 -7 249 0
274 -2 263 -16 -8 -12 -6 -11 9 2 25 21 45 22 38 3 -3 -8 -1 -17 4 -20 5 -3 9
2 8 11 -1 15 12 18 88 20 65 3 92 0 98 -9 5 -9 8 -10 8 -1 0 8 25 12 83 11 45
0 105 0 134 1 l51 1 0 55 c-1 50 -10 72 -31 74 -45 5 -87 15 -87 23 0 5 -4 7
-9 4 -7 -5 -35 13 -66 43 -39 38 -79 116 -71 137 3 8 2 13 -3 9 -5 -3 -9 14
-9 37 0 24 -1 48 -2 53 -4 21 4 120 10 120 1 0 3 14 5 30 5 36 9 50 81 280 31
99 62 186 68 194 6 8 10 16 8 18 -6 6 9 63 16 63 4 0 8 11 8 25 1 14 5 33 10
43 10 22 9 19 24 74 8 26 18 44 23 41 6 -3 7 -1 4 4 -11 17 22 115 36 107 9
-5 9 -4 1 5 -12 13 4 81 19 81 5 0 5 4 2 10 -3 5 0 20 7 32 7 13 13 32 13 43
1 12 7 19 15 17 11 -3 12 -1 4 8 -9 9 -6 27 11 71 13 32 22 59 20 59 -2 0 3
17 12 37 8 21 17 49 20 63 2 13 9 28 15 31 6 4 12 22 13 41 3 44 21 88 37 88
9 0 9 3 -1 9 -10 7 -12 13 -5 23 6 7 17 33 24 58 8 25 14 47 15 50 1 3 6 20
10 37 4 18 11 30 16 27 5 -3 6 2 3 10 -3 9 -2 16 3 16 5 0 9 10 8 23 -1 12 0
27 4 32 3 6 6 12 7 15 0 3 6 18 12 33 7 16 12 31 12 35 0 25 23 81 30 77 6 -3
7 1 4 9 -3 8 -2 21 2 28 5 7 9 18 10 23 0 6 2 16 2 23 1 7 6 11 11 8 4 -3 6 6
3 21 -3 16 -1 24 5 20 6 -4 11 -1 10 6 -1 34 4 58 11 53 4 -3 8 5 9 17 1 50 3
58 15 51 7 -4 8 -3 4 5 -10 16 13 83 26 75 7 -4 8 -2 4 4 -4 6 -4 23 0 37 4
15 10 22 13 17 4 -6 7 6 8 26 0 20 7 51 14 67 7 17 13 33 14 38 2 4 4 9 5 12
4 7 5 15 14 57 5 23 12 35 19 31 6 -4 8 0 4 9 -3 9 -3 19 1 23 7 7 9 13 11 45
0 10 11 29 24 41 12 12 16 19 10 15 -16 -9 -16 -7 1 42 8 22 12 43 9 46 -4 3
-1 6 6 6 7 0 10 3 8 8 -3 4 0 18 6 32 12 29 14 36 21 70 3 14 10 26 16 28 6 2
8 8 5 12 -5 9 54 200 65 210 3 3 6 16 8 30 1 14 5 32 9 40 3 8 7 17 8 20 18
62 40 118 46 115 4 -3 5 3 3 12 -6 24 30 125 41 115 4 -4 5 -1 1 5 -4 7 0 34
9 60 9 27 18 55 20 63 2 8 11 35 20 60 9 25 18 54 21 65 7 39 27 66 43 59 24
-9 431 -10 431 -1 0 5 5 5 11 2 15 -10 709 -11 709 -2 0 5 5 5 11 1 16 -10
229 -11 229 -1 0 5 5 5 11 1 16 -10 209 -11 209 -1 0 5 5 5 12 1 6 -4 56 -8
111 -8 l99 -1 13 -35 c7 -19 16 -44 21 -55 7 -18 6 -19 -12 -5 -14 11 -14 8 3
-11 18 -20 20 -28 10 -38 -10 -10 -8 -11 8 -5 11 4 17 4 13 0 -3 -4 0 -23 8
-42 8 -19 11 -34 8 -34 -4 0 -2 -6 3 -12 6 -7 14 -26 18 -43 5 -16 10 -37 12
-45 2 -8 5 -21 5 -27 1 -7 4 -13 8 -13 6 0 33 -93 31 -105 -1 -3 6 -19 15 -36
8 -17 17 -38 19 -47 2 -10 11 -37 19 -61 9 -24 14 -46 11 -49 -3 -3 2 -14 12
-24 9 -10 13 -18 9 -18 -3 0 0 -16 8 -35 8 -19 12 -35 9 -35 -3 0 0 -7 7 -15
7 -9 10 -18 6 -22 -3 -3 1 -14 10 -24 9 -10 14 -25 11 -33 -3 -8 -1 -16 4 -18
6 -2 12 -16 12 -31 1 -15 6 -27 11 -27 5 0 6 -3 3 -6 -3 -4 -2 -15 4 -26 6
-11 12 -27 14 -36 2 -9 18 -57 34 -105 17 -49 28 -94 24 -100 -3 -7 -2 -9 2
-4 7 6 45 -95 59 -153 1 -8 8 -28 14 -43 7 -16 12 -34 12 -41 0 -6 5 -17 12
-24 7 -7 9 -12 5 -12 -4 0 -1 -12 6 -27 7 -16 13 -35 12 -43 0 -8 2 -17 5 -20
6 -5 48 -134 53 -160 1 -8 5 -17 9 -20 4 -3 9 -15 11 -25 2 -11 7 -27 10 -35
3 -8 7 -24 9 -35 2 -11 7 -23 12 -26 4 -4 9 -20 9 -37 1 -17 5 -28 9 -26 5 3
8 -3 8 -14 0 -10 3 -22 7 -26 13 -13 13 -49 1 -65 -11 -14 -11 -14 4 -3 15 12
18 9 29 -30 7 -24 13 -46 13 -50 1 -3 4 -9 8 -13 4 -4 4 -13 1 -21 -3 -8 0
-14 6 -14 6 0 11 -9 11 -19 0 -11 5 -23 10 -26 6 -4 8 -11 4 -16 -3 -5 -1 -16
6 -24 9 -10 7 -16 -7 -24 -12 -8 -13 -11 -3 -9 8 2 16 -1 17 -5 2 -4 10 -21
18 -37 9 -17 13 -30 11 -30 -2 0 6 -28 20 -61 13 -34 21 -65 19 -70 -3 -4 -1
-10 5 -14 6 -4 8 -11 5 -16 -4 -5 -1 -9 4 -9 6 0 11 -7 11 -16 0 -9 11 -47 25
-85 13 -38 21 -69 17 -69 -4 0 -2 -4 5 -8 6 -4 14 -19 16 -32 2 -14 9 -36 14
-50 6 -14 9 -28 6 -32 -2 -5 1 -8 6 -8 12 0 15 -46 4 -53 -5 -2 -2 -2 5 -1 7
2 15 -9 19 -26 3 -17 10 -33 15 -36 5 -3 3 -13 -4 -22 -11 -13 -11 -14 1 -7
11 6 13 3 9 -13 -4 -13 -1 -20 5 -19 14 3 16 -26 2 -35 -6 -5 -3 -8 6 -8 20 0
33 -27 17 -36 -8 -5 -6 -11 5 -18 12 -10 26 -43 43 -108 1 -5 2 -9 3 -10 11
-18 58 -174 55 -180 -3 -4 -1 -8 4 -8 5 0 9 -6 10 -12 1 -12 26 -89 43 -133
14 -35 53 -170 65 -225 10 -46 11 -195 1 -207 -5 -7 -7 -13 -3 -13 12 0 -35
-77 -61 -100 -31 -27 -103 -60 -144 -66 -16 -2 -42 -6 -59 -8 -16 -3 -33 -7
-38 -10 -9 -6 -8 -103 2 -113 3 -3 90 -6 193 -6 126 0 190 -4 195 -11 5 -8 8
-7 8 2 0 6 9 12 20 12 12 0 17 -5 14 -14 -3 -8 -1 -17 4 -20 5 -3 9 2 8 11 -1
20 53 30 65 11 7 -10 9 -10 9 0 0 6 11 12 25 12 25 0 31 -8 18 -26 -5 -5 -1
-1 9 8 20 22 29 23 22 4 -3 -8 -1 -17 4 -20 5 -3 9 2 8 12 -1 16 20 17 286 18
218 0 291 4 302 13 9 7 13 18 9 24 -4 6 -6 28 -4 49 1 25 -3 38 -11 39 -61 3
-171 44 -236 87 -52 34 -162 138 -162 152 0 4 -9 17 -20 30 -11 13 -20 29 -20
35 0 7 -7 16 -16 19 -8 3 -13 10 -10 15 4 5 3 11 -2 13 -10 4 -94 168 -86 168
4 0 1 6 -5 14 -16 19 -72 177 -66 186 3 5 1 10 -5 12 -6 2 -12 12 -14 23 -2
11 -9 32 -15 48 -6 15 -8 27 -5 27 4 0 1 7 -6 15 -7 8 -9 15 -5 15 4 0 3 6 -2
13 -6 6 -9 22 -8 34 1 12 -1 20 -5 18 -5 -3 -66 166 -74 205 -2 8 -6 22 -9 30
-20 53 -35 110 -29 110 4 0 2 4 -3 8 -9 6 -29 59 -41 107 -1 6 -11 35 -22 65
-10 30 -20 57 -20 60 0 3 -3 12 -6 20 -35 96 -63 190 -58 194 3 3 -1 6 -8 6
-7 0 -10 3 -7 6 3 4 2 14 -3 24 -5 9 -11 28 -14 41 -4 21 -37 123 -54 169 -3
8 -6 17 -7 20 -1 3 -5 13 -9 22 -4 9 -9 25 -11 35 -2 10 -4 19 -5 21 -2 1 -4
7 -5 12 -1 6 -4 12 -5 15 -3 5 -3 6 -15 50 -4 17 -10 35 -14 40 -3 6 -6 12 -7
15 0 3 -7 25 -14 50 -7 25 -14 48 -14 52 -1 3 -4 10 -8 14 -5 4 -8 17 -8 29 0
12 -3 25 -7 29 -5 4 -9 12 -9 17 -1 5 -3 11 -4 14 -1 3 -3 8 -4 13 -1 4 -23
70 -48 147 -25 77 -48 149 -50 160 -1 11 -6 22 -9 25 -3 3 -25 66 -48 140 -23
74 -45 142 -48 150 -8 21 -14 43 -15 58 -1 6 -4 12 -8 12 -4 0 -7 6 -7 13 0 6
-14 54 -32 105 -18 51 -33 102 -34 113 -1 10 -4 19 -8 19 -6 0 -35 112 -30
119 1 2 -2 7 -9 11 -6 4 -13 19 -16 35 -3 15 -9 36 -15 47 -5 10 -7 18 -3 18
3 0 1 6 -5 13 -6 8 -12 22 -14 33 -1 10 -6 24 -10 31 -4 6 -8 23 -9 37 -1 14
-5 26 -8 26 -7 0 -35 99 -34 117 1 7 -1 11 -5 8 -4 -2 -13 19 -21 48 -7 29
-18 58 -24 66 -6 8 -10 17 -9 20 1 3 -7 38 -20 76 -12 39 -21 76 -20 83 0 6
-4 12 -9 12 -6 0 -8 7 -4 15 3 8 1 15 -5 15 -6 0 -9 7 -5 15 3 8 1 15 -4 15
-6 0 -9 3 -9 8 1 4 0 10 -1 15 -1 4 -3 10 -4 15 -4 14 -129 397 -137 417 -13
34 -34 99 -34 110 0 6 -4 16 -8 23 -5 6 -6 12 -3 12 3 0 -1 12 -9 27 -8 15
-12 30 -9 35 3 4 0 8 -6 8 -6 0 -9 3 -7 8 3 4 0 18 -6 32 -12 31 -17 49 -20
77 -1 11 -4 20 -7 18 -5 -3 -35 82 -46 128 -1 4 -3 9 -4 12 -1 3 -3 8 -4 13
-1 4 -12 38 -24 75 -12 38 -19 74 -15 80 3 5 1 7 -4 4 -10 -6 -50 107 -45 126
1 4 -3 7 -9 7 -6 0 -9 7 -6 15 4 8 2 17 -3 20 -6 4 -10 16 -10 29 0 12 -4 26
-8 32 -15 18 -33 84 -26 95 5 8 3 9 -6 4 -10 -6 -12 -4 -7 8 3 9 2 19 -3 22
-5 3 -15 25 -22 48 -14 51 -13 49 -20 67 -28 72 -58 182 -52 192 4 7 3 8 -4 4
-11 -7 -16 12 -15 51 1 7 -3 10 -8 7 -5 -3 -9 1 -10 8 -1 22 -19 81 -83 273
-2 6 -4 13 -5 18 0 4 -8 21 -16 37 -9 17 -13 30 -9 30 4 0 1 7 -6 15 -7 8 -10
15 -6 15 3 0 0 16 -8 35 -8 19 -12 35 -9 35 3 0 1 6 -4 13 -7 9 -39 99 -48
137 -1 3 -5 13 -9 22 -5 10 -9 29 -10 43 0 14 -4 25 -7 25 -4 0 -35 91 -45
130 -2 12 -16 47 -25 62 -5 10 -9 24 -9 31 0 8 -18 67 -41 133 -22 65 -41 124
-43 129 -2 6 -6 17 -9 25 -7 20 -28 88 -31 103 -2 7 -6 19 -9 27 -20 52 -70
207 -70 220 0 8 -6 21 -13 28 -7 7 -11 19 -7 27 3 9 1 21 -5 28 -8 11 -30 70
-36 100 -2 7 -8 25 -14 40 -7 16 -12 34 -12 41 0 7 -3 16 -7 20 -4 3 -8 16
-10 28 -2 12 -9 28 -16 37 -8 9 -8 12 -1 8 7 -4 3 10 -7 30 -11 21 -19 42 -19
49 0 34 -74 136 -121 166 -68 43 -108 47 -564 48 -239 0 -436 -3 -437 -7z
m1087 -1223 c-3 -5 -1 -10 4 -10 6 0 11 -5 11 -11 0 -5 -6 -7 -12 -4 -7 4 -6
1 3 -7 8 -7 18 -22 21 -33 4 -11 11 -35 17 -53 7 -24 7 -31 -2 -26 -7 3 -3 -2
7 -10 11 -9 17 -16 14 -16 -4 0 7 -37 22 -81 16 -45 29 -84 28 -88 -1 -8 10
-40 23 -64 7 -13 6 -23 -2 -33 -9 -12 -9 -13 3 -9 8 3 15 0 16 -7 5 -44 16
-78 24 -78 5 0 7 -4 3 -9 -3 -5 -1 -12 4 -15 5 -3 8 -19 7 -35 -1 -17 2 -28 6
-25 7 5 12 -13 11 -43 -1 -7 3 -10 8 -7 8 4 12 -17 8 -42 0 -4 4 -10 10 -13 6
-4 13 -18 15 -31 2 -14 5 -26 5 -27 1 -2 1 -5 1 -8 0 -3 6 -18 15 -35 8 -16
15 -38 15 -50 0 -11 4 -20 8 -20 4 0 9 -8 10 -17 3 -26 8 -45 19 -73 6 -14 9
-28 6 -32 -2 -5 1 -8 7 -8 7 0 10 -7 7 -15 -4 -8 -2 -17 4 -20 5 -4 7 -11 4
-16 -4 -5 -2 -9 3 -9 5 0 9 -6 10 -12 1 -7 3 -24 4 -38 2 -14 6 -27 10 -30 5
-4 64 -169 72 -205 2 -5 8 -23 14 -38 7 -16 12 -34 12 -41 0 -6 6 -18 13 -25
8 -10 8 -12 0 -7 -7 4 -6 -5 4 -25 8 -17 16 -41 17 -54 0 -13 5 -21 10 -17 5
3 7 -2 3 -11 -3 -9 -2 -19 4 -22 5 -4 7 -11 4 -16 -4 -5 -2 -9 3 -9 9 0 35
-79 35 -106 0 -8 4 -14 9 -14 4 0 7 -3 6 -7 0 -5 1 -15 4 -23 32 -85 60 -179
60 -197 0 -13 4 -20 9 -17 5 3 9 -6 9 -21 0 -14 8 -38 17 -52 17 -26 17 -27
-2 -20 -19 7 -19 6 -1 -7 10 -9 15 -20 10 -27 -4 -7 -3 -10 3 -6 5 4 20 -27
33 -71 13 -42 27 -82 31 -87 4 -6 10 -22 12 -35 2 -14 6 -32 10 -40 3 -8 20
-60 38 -115 18 -55 37 -106 43 -114 9 -12 8 -13 -4 -6 -13 7 -13 6 -2 -7 7 -9
14 -29 15 -46 1 -16 5 -28 10 -25 4 2 7 1 7 -4 0 -4 3 -18 6 -30 l6 -23 -892
1 c-836 0 -891 1 -885 17 3 9 14 43 22 75 12 43 20 56 31 52 12 -4 12 -2 4 8
-7 8 -9 17 -5 21 4 3 8 14 9 24 6 37 27 102 34 102 4 0 6 11 5 25 -2 14 0 25
4 25 7 0 37 99 33 113 -1 4 2 7 8 7 6 0 9 3 8 8 -1 4 6 33 15 65 12 37 22 55
29 51 7 -4 8 -3 4 5 -10 16 2 64 14 56 5 -3 12 -1 15 5 4 6 2 9 -3 8 -15 -4
-15 9 -1 45 6 18 12 39 13 47 1 8 4 20 7 25 4 6 17 45 29 88 13 42 27 77 31
77 5 0 6 7 3 15 -4 8 -2 21 4 28 9 12 21 50 29 92 2 11 11 26 20 33 9 6 12 12
6 12 -7 0 -6 17 5 50 9 28 20 50 24 50 5 0 6 5 3 10 -3 6 -3 16 2 23 4 6 8 17
9 24 1 7 9 26 17 43 10 19 11 28 4 23 -7 -4 -6 0 2 10 7 9 10 17 6 17 -4 0 -2
6 4 13 6 8 8 17 4 20 -3 4 -1 7 5 7 6 0 9 7 6 15 -4 8 -1 15 6 15 6 0 9 4 6 8
-4 7 12 67 31 112 8 18 7 17 17 58 4 18 12 30 17 27 5 -4 6 0 4 7 -7 19 50
190 60 180 5 -4 5 -2 2 4 -4 6 1 36 9 65 9 30 16 55 15 57 -1 1 5 15 13 31 9
16 12 31 9 35 -4 3 -1 6 6 6 7 0 10 4 7 9 -8 13 4 42 15 35 5 -3 7 1 4 8 -3 7
13 69 35 137 22 68 40 130 40 138 0 8 5 11 12 7 6 -4 8 -3 5 3 -4 6 10 61 30
124 20 63 36 117 35 122 -1 4 6 7 16 8 10 0 12 3 5 6 -9 3 -10 10 -3 22 5 10
11 31 14 47 5 36 5 34 12 34 3 0 2 -4 -1 -10z"/>
<path d="M30640 20220 c-9 -6 -10 -10 -3 -10 6 0 15 5 18 10 8 12 4 12 -15 0z"/>
<path d="M30695 20200 c3 -5 8 -10 11 -10 2 0 4 5 4 10 0 6 -5 10 -11 10 -5 0
-7 -4 -4 -10z"/>
<path d="M30656 20142 c-3 -5 1 -9 9 -9 8 0 12 4 9 9 -3 4 -7 8 -9 8 -2 0 -6
-4 -9 -8z"/>
<path d="M30695 20140 c3 -5 8 -10 11 -10 2 0 4 5 4 10 0 6 -5 10 -11 10 -5 0
-7 -4 -4 -10z"/>
<path d="M30733 20105 c0 -8 4 -12 9 -9 5 3 6 10 3 15 -9 13 -12 11 -12 -6z"/>
<path d="M30595 20100 c3 -5 8 -10 11 -10 2 0 4 5 4 10 0 6 -5 10 -11 10 -5 0
-7 -4 -4 -10z"/>
<path d="M30695 20101 c-3 -5 -2 -12 3 -15 5 -3 9 1 9 9 0 17 -3 19 -12 6z"/>
<path d="M30715 20020 c-3 -5 -1 -10 4 -10 6 0 11 5 11 10 0 6 -2 10 -4 10 -3
0 -8 -4 -11 -10z"/>
<path d="M30995 19260 c-3 -5 -1 -10 4 -10 6 0 11 5 11 10 0 6 -2 10 -4 10 -3
0 -8 -4 -11 -10z"/>
<path d="M30990 19016 c0 -2 8 -10 18 -17 15 -13 16 -12 3 4 -13 16 -21 21
-21 13z"/>
<path d="M31136 18858 c3 -5 10 -6 15 -3 13 9 11 12 -6 12 -8 0 -12 -4 -9 -9z"/>
<path d="M31353 18215 c0 -8 4 -12 9 -9 5 3 6 10 3 15 -9 13 -12 11 -12 -6z"/>
<path d="M31377 18155 c-4 -8 -3 -16 1 -19 4 -3 9 4 9 15 2 23 -3 25 -10 4z"/>
<path d="M2236 21433 c-6 -14 -5 -15 5 -6 7 7 10 15 7 18 -3 3 -9 -2 -12 -12z"/>
<path d="M29780 21440 c-9 -6 -10 -10 -3 -10 6 0 15 5 18 10 8 12 4 12 -15 0z"/>
<path d="M2293 21425 c0 -8 4 -12 9 -9 5 3 6 10 3 15 -9 13 -12 11 -12 -6z"/>
<path d="M29893 21425 c0 -8 4 -12 9 -9 5 3 6 10 3 15 -9 13 -12 11 -12 -6z"/>
<path d="M9766 21418 c3 -5 10 -6 15 -3 13 9 11 12 -6 12 -8 0 -12 -4 -9 -9z"/>
<path d="M13720 21420 c-12 -7 -10 -9 7 -7 12 0 19 5 17 9 -6 10 -6 10 -24 -2z"/>
<path d="M14431 21407 c-13 -21 -12 -21 5 -5 10 10 16 20 13 22 -3 3 -11 -5
-18 -17z"/>
<path d="M2116 21398 c3 -5 10 -6 15 -3 13 9 11 12 -6 12 -8 0 -12 -4 -9 -9z"/>
<path d="M10739 21408 c-5 -18 -6 -38 -1 -34 7 8 12 36 6 36 -2 0 -4 -1 -5 -2z"/>
<path d="M13675 21400 c3 -5 8 -10 11 -10 2 0 4 5 4 10 0 6 -5 10 -11 10 -5 0
-7 -4 -4 -10z"/>
<path d="M14395 21401 c-3 -5 -2 -12 3 -15 5 -3 9 1 9 9 0 17 -3 19 -12 6z"/>
<path d="M19054 21402 c4 -3 14 -7 22 -8 9 -1 13 0 10 4 -4 3 -14 7 -22 8 -9
1 -13 0 -10 -4z"/>
<path d="M29627 21399 c7 -7 15 -10 18 -7 3 3 -2 9 -12 12 -14 6 -15 5 -6 -5z"/>
<path d="M2194 21382 c4 -3 14 -7 22 -8 9 -1 13 0 10 4 -4 3 -14 7 -22 8 -9 1
-13 0 -10 -4z"/>
<path d="M2254 21382 c4 -3 14 -7 22 -8 9 -1 13 0 10 4 -4 3 -14 7 -22 8 -9 1
-13 0 -10 -4z"/>
<path d="M18966 21382 c-3 -5 1 -9 9 -9 8 0 12 4 9 9 -3 4 -7 8 -9 8 -2 0 -6
-4 -9 -8z"/>
<path d="M29795 21379 c-3 -4 2 -6 10 -5 21 3 28 13 10 13 -9 0 -18 -4 -20 -8z"/>
<path d="M29856 21378 c3 -5 10 -6 15 -3 13 9 11 12 -6 12 -8 0 -12 -4 -9 -9z"/>
<path d="M29895 21380 c-3 -5 -1 -10 4 -10 6 0 11 5 11 10 0 6 -2 10 -4 10 -3
0 -8 -4 -11 -10z"/>
<path d="M29930 21379 c0 -5 5 -7 10 -4 6 3 10 8 10 11 0 2 -4 4 -10 4 -5 0
-10 -5 -10 -11z"/>
<path d="M13750 21376 c0 -2 8 -10 18 -17 15 -13 16 -12 3 4 -13 16 -21 21
-21 13z"/>
<path d="M19070 21376 c0 -2 8 -10 18 -17 15 -13 16 -12 3 4 -13 16 -21 21
-21 13z"/>
<path d="M2340 21366 c0 -2 8 -10 18 -17 15 -13 16 -12 3 4 -13 16 -21 21 -21
13z"/>
<path d="M2386 21358 c3 -5 10 -6 15 -3 13 9 11 12 -6 12 -8 0 -12 -4 -9 -9z"/>
<path d="M14355 21360 c3 -5 8 -10 11 -10 2 0 4 5 4 10 0 6 -5 10 -11 10 -5 0
-7 -4 -4 -10z"/>
<path d="M13693 21345 c0 -8 4 -12 9 -9 5 3 6 10 3 15 -9 13 -12 11 -12 -6z"/>
<path d="M10695 21340 c-3 -5 -1 -10 4 -10 6 0 11 5 11 10 0 6 -2 10 -4 10 -3
0 -8 -4 -11 -10z"/>
<path d="M13850 21341 c0 -6 4 -13 10 -16 6 -3 7 1 4 9 -7 18 -14 21 -14 7z"/>
<path d="M29845 21340 c-3 -6 1 -7 9 -4 18 7 21 14 7 14 -6 0 -13 -4 -16 -10z"/>
<path d="M13796 21327 c3 -10 9 -15 12 -12 3 3 0 11 -7 18 -10 9 -11 8 -5 -6z"/>
<path d="M9881 21316 c-9 -11 -9 -16 1 -22 7 -4 10 -4 6 1 -4 4 -3 14 3 22 6
7 9 13 6 13 -2 0 -10 -6 -16 -14z"/>
<path d="M10653 21311 c0 -11 5 -18 9 -15 4 3 5 11 1 19 -7 21 -12 19 -10 -4z"/>
<path d="M18907 21319 c7 -7 15 -10 18 -7 3 3 -2 9 -12 12 -14 6 -15 5 -6 -5z"/>
<path d="M2316 21307 c3 -10 9 -15 12 -12 3 3 0 11 -7 18 -10 9 -11 8 -5 -6z"/>
<path d="M2596 21303 c-6 -14 -5 -15 5 -6 7 7 10 15 7 18 -3 3 -9 -2 -12 -12z"/>
<path d="M10610 21299 c0 -5 5 -7 10 -4 6 3 10 8 10 11 0 2 -4 4 -10 4 -5 0
-10 -5 -10 -11z"/>
<path d="M19053 21295 c0 -8 4 -12 9 -9 5 3 6 10 3 15 -9 13 -12 11 -12 -6z"/>
<path d="M29920 21300 c-12 -7 -10 -9 7 -7 12 0 19 5 17 9 -6 10 -6 10 -24 -2z"/>
<path d="M29975 21299 c-3 -4 2 -6 10 -5 21 3 28 13 10 13 -9 0 -18 -4 -20 -8z"/>
<path d="M30150 21296 c7 -7 13 -7 20 0 6 6 3 10 -10 10 -13 0 -16 -4 -10 -10z"/>
<path d="M9915 21291 c-3 -5 -2 -12 3 -15 5 -3 9 1 9 9 0 17 -3 19 -12 6z"/>
<path d="M9799 21273 c-13 -16 -12 -17 4 -4 9 7 17 15 17 17 0 8 -8 3 -21 -13z"/>
<path d="M13821 21276 c-9 -11 -9 -16 1 -22 7 -4 10 -4 6 1 -4 4 -3 14 3 22 6
7 9 13 6 13 -2 0 -10 -6 -16 -14z"/>
<path d="M30060 21285 c0 -2 6 -8 13 -14 10 -8 14 -7 14 2 0 8 -6 14 -14 14
-7 0 -13 -1 -13 -2z"/>
<path d="M9890 21259 c0 -5 5 -7 10 -4 6 3 10 8 10 11 0 2 -4 4 -10 4 -5 0
-10 -5 -10 -11z"/>
<path d="M19130 21259 c0 -5 5 -7 10 -4 6 3 10 8 10 11 0 2 -4 4 -10 4 -5 0
-10 -5 -10 -11z"/>
<path d="M30193 21249 c-2 -23 3 -25 10 -4 4 8 3 16 -1 19 -4 3 -9 -4 -9 -15z"/>
<path d="M14255 21220 c3 -5 8 -10 11 -10 2 0 4 5 4 10 0 6 -5 10 -11 10 -5 0
-7 -4 -4 -10z"/>
<path d="M13835 21211 c-3 -5 -2 -12 3 -15 5 -3 9 1 9 9 0 17 -3 19 -12 6z"/>
<path d="M13913 21205 c0 -8 4 -12 9 -9 5 3 6 10 3 15 -9 13 -12 11 -12 -6z"/>
<path d="M30195 21209 c-4 -6 -5 -12 -2 -15 2 -3 7 2 10 11 7 17 1 20 -8 4z"/>
<path d="M30281 21196 c-9 -11 -9 -16 1 -22 7 -4 10 -4 6 1 -4 4 -3 14 3 22 6
7 9 13 6 13 -2 0 -10 -6 -16 -14z"/>
<path d="M19215 21180 c3 -5 8 -10 11 -10 2 0 4 5 4 10 0 6 -5 10 -11 10 -5 0
-7 -4 -4 -10z"/>
<path d="M10515 21160 c-3 -5 -1 -10 4 -10 6 0 11 5 11 10 0 6 -2 10 -4 10 -3
0 -8 -4 -11 -10z"/>
<path d="M9995 21140 c-3 -5 -1 -10 4 -10 6 0 11 5 11 10 0 6 -2 10 -4 10 -3
0 -8 -4 -11 -10z"/>
<path d="M13955 21140 c3 -5 8 -10 11 -10 2 0 4 5 4 10 0 6 -5 10 -11 10 -5 0
-7 -4 -4 -10z"/>
<path d="M14186 21122 c-3 -5 1 -9 9 -9 8 0 12 4 9 9 -3 4 -7 8 -9 8 -2 0 -6
-4 -9 -8z"/>
<path d="M30296 21098 c3 -4 11 -5 19 -1 21 7 19 12 -4 10 -11 0 -18 -5 -15
-9z"/>
<path d="M2786 21082 c-3 -5 1 -9 9 -9 8 0 12 4 9 9 -3 4 -7 8 -9 8 -2 0 -6
-4 -9 -8z"/>
<path d="M9955 21049 c-4 -6 -5 -12 -2 -15 2 -3 7 2 10 11 7 17 1 20 -8 4z"/>
<path d="M2785 21040 c-3 -6 1 -7 9 -4 18 7 21 14 7 14 -6 0 -13 -4 -16 -10z"/>
<path d="M9996 20998 c3 -5 10 -6 15 -3 13 9 11 12 -6 12 -8 0 -12 -4 -9 -9z"/>
<path d="M30415 20980 c3 -5 8 -10 11 -10 2 0 4 5 4 10 0 6 -5 10 -11 10 -5 0
-7 -4 -4 -10z"/>
<path d="M10465 20880 c-3 -6 1 -7 9 -4 18 7 21 14 7 14 -6 0 -13 -4 -16 -10z"/>
<path d="M2886 20862 c-3 -5 1 -9 9 -9 8 0 12 4 9 9 -3 4 -7 8 -9 8 -2 0 -6
-4 -9 -8z"/>
<path d="M13955 20681 c-3 -5 -2 -12 3 -15 5 -3 9 1 9 9 0 17 -3 19 -12 6z"/>
<path d="M13955 20521 c-3 -5 -2 -12 3 -15 5 -3 9 1 9 9 0 17 -3 19 -12 6z"/>
<path d="M13955 20361 c-3 -5 -2 -12 3 -15 5 -3 9 1 9 9 0 17 -3 19 -12 6z"/>
<path d="M13955 20201 c-3 -5 -2 -12 3 -15 5 -3 9 1 9 9 0 17 -3 19 -12 6z"/>
<path d="M13955 20041 c-3 -5 -2 -12 3 -15 5 -3 9 1 9 9 0 17 -3 19 -12 6z"/>
<path d="M13955 19881 c-3 -5 -2 -12 3 -15 5 -3 9 1 9 9 0 17 -3 19 -12 6z"/>
<path d="M22080 19720 c-9 -6 -10 -10 -3 -10 6 0 15 5 18 10 8 12 4 12 -15 0z"/>
<path d="M22056 19658 c3 -4 11 -5 19 -1 21 7 19 12 -4 10 -11 0 -18 -5 -15
-9z"/>
<path d="M22010 19580 c0 -5 5 -10 11 -10 5 0 7 5 4 10 -3 6 -8 10 -11 10 -2
0 -4 -4 -4 -10z"/>
<path d="M13950 19481 c0 -6 4 -13 10 -16 6 -3 7 1 4 9 -7 18 -14 21 -14 7z"/>
<path d="M21956 19478 c3 -5 10 -6 15 -3 13 9 11 12 -6 12 -8 0 -12 -4 -9 -9z"/>
<path d="M21795 19220 c3 -5 8 -10 11 -10 2 0 4 5 4 10 0 6 -5 10 -11 10 -5 0
-7 -4 -4 -10z"/>
<path d="M21646 19058 c3 -5 10 -6 15 -3 13 9 11 12 -6 12 -8 0 -12 -4 -9 -9z"/>
<path d="M21535 19039 c-3 -4 2 -6 10 -5 21 3 28 13 10 13 -9 0 -18 -4 -20 -8z"/>
<path d="M21469 19003 c-13 -16 -12 -17 4 -4 16 13 21 21 13 21 -2 0 -10 -8
-17 -17z"/>
<path d="M21555 19010 c-4 -6 -11 -7 -17 -4 -7 4 -8 2 -4 -5 6 -9 11 -9 22 0
14 11 18 19 10 19 -3 0 -8 -5 -11 -10z"/>
<path d="M13950 19001 c0 -6 4 -13 10 -16 6 -3 7 1 4 9 -7 18 -14 21 -14 7z"/>
<path d="M21430 18976 c0 -2 8 -10 18 -17 15 -13 16 -12 3 4 -13 16 -21 21
-21 13z"/>
<path d="M21395 18880 c3 -5 8 -10 11 -10 2 0 4 5 4 10 0 6 -5 10 -11 10 -5 0
-7 -4 -4 -10z"/>
<path d="M21293 18831 c0 -11 5 -18 9 -15 4 3 5 11 1 19 -7 21 -12 19 -10 -4z"/>
<path d="M21154 18822 c4 -3 14 -7 22 -8 9 -1 13 0 10 4 -4 3 -14 7 -22 8 -9
1 -13 0 -10 -4z"/>
<path d="M21070 18780 c0 -5 5 -10 11 -10 5 0 7 5 4 10 -3 6 -8 10 -11 10 -2
0 -4 -4 -4 -10z"/>
<path d="M21175 18780 c-3 -5 -1 -10 4 -10 6 0 11 5 11 10 0 6 -2 10 -4 10 -3
0 -8 -4 -11 -10z"/>
<path d="M21094 18736 c1 -8 5 -18 8 -22 4 -3 5 1 4 10 -1 8 -5 18 -8 22 -4 3
-5 -1 -4 -10z"/>
<path d="M20966 18718 c3 -5 10 -6 15 -3 13 9 11 12 -6 12 -8 0 -12 -4 -9 -9z"/>
<path d="M21015 18720 c-3 -5 -1 -10 4 -10 6 0 11 5 11 10 0 6 -2 10 -4 10 -3
0 -8 -4 -11 -10z"/>
<path d="M19694 18696 c1 -8 5 -18 8 -22 4 -3 5 1 4 10 -1 8 -5 18 -8 22 -4 3
-5 -1 -4 -10z"/>
<path d="M21195 18669 c-4 -6 -5 -12 -2 -15 2 -3 7 2 10 11 7 17 1 20 -8 4z"/>
<path d="M20316 18642 c-3 -5 1 -9 9 -9 8 0 12 4 9 9 -3 4 -7 8 -9 8 -2 0 -6
-4 -9 -8z"/>
<path d="M20255 18619 c-3 -4 2 -6 10 -5 21 3 28 13 10 13 -9 0 -18 -4 -20 -8z"/>
<path d="M20115 18600 c-3 -5 -1 -10 4 -10 6 0 11 5 11 10 0 6 -2 10 -4 10 -3
0 -8 -4 -11 -10z"/>
<path d="M19693 18575 c0 -8 4 -12 9 -9 5 3 6 10 3 15 -9 13 -12 11 -12 -6z"/>
<path d="M20467 18559 c7 -7 15 -10 18 -7 3 3 -2 9 -12 12 -14 6 -15 5 -6 -5z"/>
<path d="M20469 18523 c-13 -16 -12 -17 4 -4 16 13 21 21 13 21 -2 0 -10 -8
-17 -17z"/>
<path d="M13950 18521 c0 -6 4 -13 10 -16 6 -3 7 1 4 9 -7 18 -14 21 -14 7z"/>
<path d="M20530 18420 c0 -5 5 -10 11 -10 5 0 7 5 4 10 -3 6 -8 10 -11 10 -2
0 -4 -4 -4 -10z"/>
<path d="M20570 18419 c0 -5 5 -7 10 -4 6 3 10 8 10 11 0 2 -4 4 -10 4 -5 0
-10 -5 -10 -11z"/>
<path d="M20617 18355 c-4 -8 -3 -16 1 -19 4 -3 9 4 9 15 2 23 -3 25 -10 4z"/>
<path d="M20605 18280 c-3 -6 1 -7 9 -4 18 7 21 14 7 14 -6 0 -13 -4 -16 -10z"/>
<path d="M20735 18180 c3 -5 8 -10 11 -10 2 0 4 5 4 10 0 6 -5 10 -11 10 -5 0
-7 -4 -4 -10z"/>
<path d="M20775 18140 c3 -5 8 -10 11 -10 2 0 4 5 4 10 0 6 -5 10 -11 10 -5 0
-7 -4 -4 -10z"/>
<path d="M13950 18041 c0 -6 4 -13 10 -16 6 -3 7 1 4 9 -7 18 -14 21 -14 7z"/>
<path d="M20845 17960 c-3 -6 1 -7 9 -4 18 7 21 14 7 14 -6 0 -13 -4 -16 -10z"/>
<path d="M20956 17882 c-3 -5 1 -9 9 -9 8 0 12 4 9 9 -3 4 -7 8 -9 8 -2 0 -6
-4 -9 -8z"/>
<path d="M20976 17818 c3 -4 11 -5 19 -1 21 7 19 12 -4 10 -11 0 -18 -5 -15
-9z"/>
<path d="M21046 17662 c-3 -5 1 -9 9 -9 8 0 12 4 9 9 -3 4 -7 8 -9 8 -2 0 -6
-4 -9 -8z"/>
<path d="M21095 17631 c-3 -5 -2 -12 3 -15 5 -3 9 1 9 9 0 17 -3 19 -12 6z"/>
<path d="M13950 17561 c0 -6 4 -13 10 -16 6 -3 7 1 4 9 -7 18 -14 21 -14 7z"/>
<path d="M21090 17559 c0 -5 5 -7 10 -4 6 3 10 8 10 11 0 2 -4 4 -10 4 -5 0
-10 -5 -10 -11z"/>
<path d="M2170 17499 c0 -5 5 -7 10 -4 6 3 10 8 10 11 0 2 -4 4 -10 4 -5 0
-10 -5 -10 -11z"/>
<path d="M2206 17502 c-3 -5 1 -9 9 -9 8 0 12 4 9 9 -3 4 -7 8 -9 8 -2 0 -6
-4 -9 -8z"/>
<path d="M21126 17502 c-3 -5 1 -9 9 -9 8 0 12 4 9 9 -3 4 -7 8 -9 8 -2 0 -6
-4 -9 -8z"/>
<path d="M3956 17487 c3 -10 9 -15 12 -12 3 3 0 11 -7 18 -10 9 -11 8 -5 -6z"/>
<path d="M29795 17489 c-4 -6 -5 -12 -2 -15 2 -3 7 2 10 11 7 17 1 20 -8 4z"/>
<path d="M3887 17479 c7 -7 15 -10 18 -7 3 3 -2 9 -12 12 -14 6 -15 5 -6 -5z"/>
<path d="M29746 17478 c3 -5 10 -6 15 -3 13 9 11 12 -6 12 -8 0 -12 -4 -9 -9z"/>
<path d="M2315 17471 c-3 -5 -2 -12 3 -15 5 -3 9 1 9 9 0 17 -3 19 -12 6z"/>
<path d="M29853 17465 c0 -8 4 -12 9 -9 5 3 6 10 3 15 -9 13 -12 11 -12 -6z"/>
<path d="M2255 17459 c-3 -4 2 -6 10 -5 21 3 28 13 10 13 -9 0 -18 -4 -20 -8z"/>
<path d="M2873 17455 c0 -8 4 -12 9 -9 5 3 6 10 3 15 -9 13 -12 11 -12 -6z"/>
<path d="M3193 17455 c0 -8 4 -12 9 -9 5 3 6 10 3 15 -9 13 -12 11 -12 -6z"/>
<path d="M3513 17455 c0 -8 4 -12 9 -9 5 3 6 10 3 15 -9 13 -12 11 -12 -6z"/>
<path d="M3833 17455 c0 -8 4 -12 9 -9 5 3 6 10 3 15 -9 13 -12 11 -12 -6z"/>
<path d="M21175 17460 c3 -5 8 -10 11 -10 2 0 4 5 4 10 0 6 -5 10 -11 10 -5 0
-7 -4 -4 -10z"/>
<path d="M31535 17460 c-3 -5 -1 -10 4 -10 6 0 11 5 11 10 0 6 -2 10 -4 10 -3
0 -8 -4 -11 -10z"/>
<path d="M29830 17440 c0 -5 5 -10 11 -10 5 0 7 5 4 10 -3 6 -8 10 -11 10 -2
0 -4 -4 -4 -10z"/>
<path d="M4013 17425 c0 -8 4 -12 9 -9 5 3 6 10 3 15 -9 13 -12 11 -12 -6z"/>
<path d="M2270 17420 c0 -5 5 -10 11 -10 5 0 7 5 4 10 -3 6 -8 10 -11 10 -2 0
-4 -4 -4 -10z"/>
<path d="M3936 17422 c-2 -4 -1 -14 4 -22 7 -11 9 -9 7 8 -1 24 -3 26 -11 14z"/>
<path d="M2435 17401 c-3 -5 -2 -12 3 -15 5 -3 9 1 9 9 0 17 -3 19 -12 6z"/>
<path d="M4015 17391 c-3 -5 -2 -12 3 -15 5 -3 9 1 9 9 0 17 -3 19 -12 6z"/>
<path d="M29833 17385 c0 -8 4 -12 9 -9 5 3 6 10 3 15 -9 13 -12 11 -12 -6z"/>
<path d="M31236 17367 c3 -10 9 -15 12 -12 3 3 0 11 -7 18 -10 9 -11 8 -5 -6z"/>
<path d="M31460 17360 c-9 -6 -10 -10 -3 -10 6 0 15 5 18 10 8 12 4 12 -15 0z"/>
<path d="M2135 17341 c-3 -5 -2 -12 3 -15 5 -3 9 1 9 9 0 17 -3 19 -12 6z"/>
<path d="M31516 17322 c-3 -5 1 -9 9 -9 8 0 12 4 9 9 -3 4 -7 8 -9 8 -2 0 -6
-4 -9 -8z"/>
<path d="M21256 17267 c3 -10 9 -15 12 -12 3 3 0 11 -7 18 -10 9 -11 8 -5 -6z"/>
<path d="M13955 17161 c-3 -5 -2 -12 3 -15 5 -3 9 1 9 9 0 17 -3 19 -12 6z"/>
<path d="M13955 17001 c-3 -5 -2 -12 3 -15 5 -3 9 1 9 9 0 17 -3 19 -12 6z"/>
<path d="M13955 16841 c-3 -5 -2 -12 3 -15 5 -3 9 1 9 9 0 17 -3 19 -12 6z"/>
<path d="M2030 16799 c0 -5 5 -7 10 -4 6 3 10 8 10 11 0 2 -4 4 -10 4 -5 0
-10 -5 -10 -11z"/>
<path d="M13955 16681 c-3 -5 -2 -12 3 -15 5 -3 9 1 9 9 0 17 -3 19 -12 6z"/>
<path d="M31856 16642 c-3 -5 1 -9 9 -9 8 0 12 4 9 9 -3 4 -7 8 -9 8 -2 0 -6
-4 -9 -8z"/>
<path d="M13955 16521 c-3 -5 -2 -12 3 -15 5 -3 9 1 9 9 0 17 -3 19 -12 6z"/>
<path d="M4334 16496 c1 -8 5 -18 8 -22 4 -3 5 1 4 10 -1 8 -5 18 -8 22 -4 3
-5 -1 -4 -10z"/>
<path d="M21550 16499 c0 -5 5 -7 10 -4 6 3 10 8 10 11 0 2 -4 4 -10 4 -5 0
-10 -5 -10 -11z"/>
<path d="M1876 16473 c-6 -14 -5 -15 5 -6 7 7 10 15 7 18 -3 3 -9 -2 -12 -12z"/>
<path d="M29475 16451 c-3 -5 -2 -12 3 -15 5 -3 9 1 9 9 0 17 -3 19 -12 6z"/>
<path d="M21550 16444 c0 -20 27 -37 36 -23 4 7 3 9 -4 5 -6 -3 -15 2 -21 11
-6 10 -11 13 -11 7z"/>
<path d="M13955 16361 c-3 -5 -2 -12 3 -15 5 -3 9 1 9 9 0 17 -3 19 -12 6z"/>
<path d="M4350 16199 c0 -5 5 -7 10 -4 6 3 10 8 10 11 0 2 -4 4 -10 4 -5 0
-10 -5 -10 -11z"/>
<path d="M13955 16201 c-3 -5 -2 -12 3 -15 5 -3 9 1 9 9 0 17 -3 19 -12 6z"/>
<path d="M31999 16113 c-13 -16 -12 -17 4 -4 9 7 17 15 17 17 0 8 -8 3 -21
-13z"/>
<path d="M4420 16066 c0 -2 8 -10 18 -17 15 -13 16 -12 3 4 -13 16 -21 21 -21
13z"/>
<path d="M13955 16041 c-3 -5 -2 -12 3 -15 5 -3 9 1 9 9 0 17 -3 19 -12 6z"/>
<path d="M21734 15996 c1 -8 5 -18 8 -22 4 -3 5 1 4 10 -1 8 -5 18 -8 22 -4 3
-5 -1 -4 -10z"/>
<path d="M29251 15987 c2 -1 13 -9 24 -17 19 -14 19 -14 6 3 -7 9 -18 17 -24
17 -6 0 -8 -1 -6 -3z"/>
<path d="M4533 15885 c0 -8 4 -12 9 -9 5 3 6 10 3 15 -9 13 -12 11 -12 -6z"/>
<path d="M13950 15801 c0 -6 4 -13 10 -16 6 -3 7 1 4 9 -7 18 -14 21 -14 7z"/>
<path d="M21791 15793 c7 -12 15 -20 18 -17 3 2 -3 12 -13 22 -17 16 -18 16
-5 -5z"/>
<path d="M21855 15660 c-3 -5 -1 -10 4 -10 6 0 11 5 11 10 0 6 -2 10 -4 10 -3
0 -8 -4 -11 -10z"/>
<path d="M21895 15540 c-3 -5 -1 -10 4 -10 6 0 11 5 11 10 0 6 -2 10 -4 10 -3
0 -8 -4 -11 -10z"/>
<path d="M4706 15322 c-3 -5 1 -9 9 -9 8 0 12 4 9 9 -3 4 -7 8 -9 8 -2 0 -6
-4 -9 -8z"/>
<path d="M13950 15321 c0 -6 4 -13 10 -16 6 -3 7 1 4 9 -7 18 -14 21 -14 7z"/>
<path d="M22015 15221 c-3 -5 -2 -12 3 -15 5 -3 9 1 9 9 0 17 -3 19 -12 6z"/>
<path d="M22039 15188 c-5 -18 -6 -38 -1 -34 7 8 12 36 6 36 -2 0 -4 -1 -5 -2z"/>
<path d="M4766 15118 c3 -5 10 -6 15 -3 13 9 11 12 -6 12 -8 0 -12 -4 -9 -9z"/>
<path d="M22036 15042 c-3 -5 1 -9 9 -9 8 0 12 4 9 9 -3 4 -7 8 -9 8 -2 0 -6
-4 -9 -8z"/>
<path d="M22090 15019 c0 -5 5 -7 10 -4 6 3 10 8 10 11 0 2 -4 4 -10 4 -5 0
-10 -5 -10 -11z"/>
<path d="M4836 14953 c-6 -14 -5 -15 5 -6 7 7 10 15 7 18 -3 3 -9 -2 -12 -12z"/>
<path d="M1350 14879 c0 -5 5 -7 10 -4 6 3 10 8 10 11 0 2 -4 4 -10 4 -5 0
-10 -5 -10 -11z"/>
<path d="M14170 14886 c0 -2 7 -7 16 -10 8 -3 12 -2 9 4 -6 10 -25 14 -25 6z"/>
<path d="M22150 14846 c0 -2 7 -7 16 -10 8 -3 12 -2 9 4 -6 10 -25 14 -25 6z"/>
<path d="M32435 14811 c-3 -5 -2 -12 3 -15 5 -3 9 1 9 9 0 17 -3 19 -12 6z"/>
<path d="M4953 14625 c0 -8 4 -12 9 -9 5 3 6 10 3 15 -9 13 -12 11 -12 -6z"/>
<path d="M32530 14566 c0 -2 7 -7 16 -10 8 -3 12 -2 9 4 -6 10 -25 14 -25 6z"/>
<path d="M14156 14518 c3 -5 10 -6 15 -3 13 9 11 12 -6 12 -8 0 -12 -4 -9 -9z"/>
<path d="M32510 14439 c0 -5 5 -7 10 -4 6 3 10 8 10 11 0 2 -4 4 -10 4 -5 0
-10 -5 -10 -11z"/>
<path d="M22395 14390 c3 -5 8 -10 11 -10 2 0 4 5 4 10 0 6 -5 10 -11 10 -5 0
-7 -4 -4 -10z"/>
<path d="M32615 14380 c-3 -5 -1 -10 4 -10 6 0 11 5 11 10 0 6 -2 10 -4 10 -3
0 -8 -4 -11 -10z"/>
<path d="M22427 14319 c7 -7 15 -10 18 -7 3 3 -2 9 -12 12 -14 6 -15 5 -6 -5z"/>
<path d="M22425 14280 c-3 -6 1 -7 9 -4 18 7 21 14 7 14 -6 0 -13 -4 -16 -10z"/>
<path d="M32696 14142 c-3 -5 1 -9 9 -9 8 0 12 4 9 9 -3 4 -7 8 -9 8 -2 0 -6
-4 -9 -8z"/>
<path d="M22513 14105 c0 -8 4 -12 9 -9 5 3 6 10 3 15 -9 13 -12 11 -12 -6z"/>
<path d="M22536 14058 c3 -4 11 -5 19 -1 21 7 19 12 -4 10 -11 0 -18 -5 -15
-9z"/>
<path d="M22555 13979 c-3 -4 2 -6 10 -5 21 3 28 13 10 13 -9 0 -18 -4 -20 -8z"/>
<path d="M22617 13955 c-4 -8 -3 -16 1 -19 4 -3 9 4 9 15 2 23 -3 25 -10 4z"/>
<path d="M32754 13902 c4 -3 14 -7 22 -8 9 -1 13 0 10 4 -4 3 -14 7 -22 8 -9
1 -13 0 -10 -4z"/>
<path d="M10213 13871 c0 -11 5 -18 9 -15 4 3 5 11 1 19 -7 21 -12 19 -10 -4z"/>
<path d="M22673 13815 c0 -8 4 -12 9 -9 5 3 6 10 3 15 -9 13 -12 11 -12 -6z"/>
<path d="M13906 13802 c-3 -5 1 -9 9 -9 8 0 12 4 9 9 -3 4 -7 8 -9 8 -2 0 -6
-4 -9 -8z"/>
<path d="M13910 13741 c0 -6 4 -13 10 -16 6 -3 7 1 4 9 -7 18 -14 21 -14 7z"/>
<path d="M22735 13740 c-3 -5 -1 -10 4 -10 6 0 11 5 11 10 0 6 -2 10 -4 10 -3
0 -8 -4 -11 -10z"/>
<path d="M10296 13698 c3 -5 10 -6 15 -3 13 9 11 12 -6 12 -8 0 -12 -4 -9 -9z"/>
<path d="M22760 13660 c-8 -5 -10 -10 -5 -10 6 0 17 5 25 10 8 5 11 10 5 10
-5 0 -17 -5 -25 -10z"/>
<path d="M10315 13640 c3 -5 8 -10 11 -10 2 0 4 5 4 10 0 6 -5 10 -11 10 -5 0
-7 -4 -4 -10z"/>
<path d="M22833 13555 c0 -8 4 -12 9 -9 5 3 6 10 3 15 -9 13 -12 11 -12 -6z"/>
<path d="M10415 13540 c-3 -5 -1 -10 4 -10 6 0 11 5 11 10 0 6 -2 10 -4 10 -3
0 -8 -4 -11 -10z"/>
<path d="M13776 13538 c3 -4 11 -5 19 -1 21 7 19 12 -4 10 -11 0 -18 -5 -15
-9z"/>
<path d="M13747 13519 c7 -7 15 -10 18 -7 3 3 -2 9 -12 12 -14 6 -15 5 -6 -5z"/>
<path d="M32790 13526 c0 -2 7 -7 16 -10 8 -3 12 -2 9 4 -6 10 -25 14 -25 6z"/>
<path d="M22905 13500 c-3 -6 1 -7 9 -4 18 7 21 14 7 14 -6 0 -13 -4 -16 -10z"/>
<path d="M10414 13462 c4 -3 14 -7 22 -8 9 -1 13 0 10 4 -4 3 -14 7 -22 8 -9
1 -13 0 -10 -4z"/>
<path d="M10490 13460 c0 -5 5 -10 11 -10 5 0 7 5 4 10 -3 6 -8 10 -11 10 -2
0 -4 -4 -4 -10z"/>
<path d="M13715 13460 c3 -5 8 -10 11 -10 2 0 4 5 4 10 0 6 -5 10 -11 10 -5 0
-7 -4 -4 -10z"/>
<path d="M22935 13460 c-3 -5 -1 -10 4 -10 6 0 11 5 11 10 0 6 -2 10 -4 10 -3
0 -8 -4 -11 -10z"/>
<path d="M10353 13435 c0 -8 4 -12 9 -9 5 3 6 10 3 15 -9 13 -12 11 -12 -6z"/>
<path d="M10510 13426 c0 -2 7 -7 16 -10 8 -3 12 -2 9 4 -6 10 -25 14 -25 6z"/>
<path d="M22993 13405 c0 -8 4 -12 9 -9 5 3 6 10 3 15 -9 13 -12 11 -12 -6z"/>
<path d="M13716 13398 c3 -5 10 -6 15 -3 13 9 11 12 -6 12 -8 0 -12 -4 -9 -9z"/>
<path d="M13653 13375 c0 -8 4 -12 9 -9 5 3 6 10 3 15 -9 13 -12 11 -12 -6z"/>
<path d="M10476 13358 c3 -5 10 -6 15 -3 13 9 11 12 -6 12 -8 0 -12 -4 -9 -9z"/>
<path d="M10519 13353 c-13 -16 -12 -17 4 -4 9 7 17 15 17 17 0 8 -8 3 -21
-13z"/>
<path d="M13570 13340 c0 -5 5 -10 11 -10 5 0 7 5 4 10 -3 6 -8 10 -11 10 -2
0 -4 -4 -4 -10z"/>
<path d="M13616 13342 c-3 -4 4 -9 15 -9 23 -2 25 3 4 10 -8 4 -16 3 -19 -1z"/>
<path d="M10526 13322 c-3 -5 1 -9 9 -9 8 0 12 4 9 9 -3 4 -7 8 -9 8 -2 0 -6
-4 -9 -8z"/>
<path d="M10656 13322 c-3 -5 1 -9 9 -9 8 0 12 4 9 9 -3 4 -7 8 -9 8 -2 0 -6
-4 -9 -8z"/>
<path d="M13516 13273 c-6 -14 -5 -15 5 -6 7 7 10 15 7 18 -3 3 -9 -2 -12 -12z"/>
<path d="M23153 13275 c0 -8 4 -12 9 -9 4 3 8 9 8 15 0 5 -4 9 -8 9 -5 0 -9
-7 -9 -15z"/>
<path d="M23139 13248 c-5 -18 -6 -38 -1 -34 7 8 12 36 6 36 -2 0 -4 -1 -5 -2z"/>
<path d="M13475 13220 c3 -5 8 -10 11 -10 2 0 4 5 4 10 0 6 -5 10 -11 10 -5 0
-7 -4 -4 -10z"/>
<path d="M23196 13218 c3 -5 10 -6 15 -3 13 9 11 12 -6 12 -8 0 -12 -4 -9 -9z"/>
<path d="M627 13199 c7 -7 15 -10 18 -7 3 3 -2 9 -12 12 -14 6 -15 5 -6 -5z"/>
<path d="M675 13190 c10 -11 20 -20 22 -20 2 0 -2 9 -9 20 -7 11 -17 20 -22
20 -5 0 -1 -9 9 -20z"/>
<path d="M996 13198 c3 -5 10 -6 15 -3 13 9 11 12 -6 12 -8 0 -12 -4 -9 -9z"/>
<path d="M5185 13199 c-3 -4 2 -6 10 -5 21 3 28 13 10 13 -9 0 -18 -4 -20 -8z"/>
<path d="M5696 13202 c-3 -5 1 -9 9 -9 8 0 12 4 9 9 -3 4 -7 8 -9 8 -2 0 -6
-4 -9 -8z"/>
<path d="M5750 13206 c0 -2 7 -7 16 -10 8 -3 12 -2 9 4 -6 10 -25 14 -25 6z"/>
<path d="M10590 13201 c0 -6 4 -13 10 -16 6 -3 7 1 4 9 -7 18 -14 21 -14 7z"/>
<path d="M10810 13201 c0 -6 4 -13 10 -16 6 -3 7 1 4 9 -7 18 -14 21 -14 7z"/>
<path d="M19200 13206 c0 -2 8 -10 18 -17 15 -13 16 -12 3 4 -13 16 -21 21
-21 13z"/>
<path d="M19754 13196 c1 -8 5 -18 8 -22 4 -3 5 1 4 10 -1 8 -5 18 -8 22 -4 3
-5 -1 -4 -10z"/>
<path d="M19837 13195 c-4 -8 -3 -16 1 -19 4 -3 9 4 9 15 2 23 -3 25 -10 4z"/>
<path d="M28216 13202 c-3 -5 1 -9 9 -9 8 0 12 4 9 9 -3 4 -7 8 -9 8 -2 0 -6
-4 -9 -8z"/>
<path d="M32806 13202 c-3 -5 1 -9 9 -9 8 0 12 4 9 9 -3 4 -7 8 -9 8 -2 0 -6
-4 -9 -8z"/>
<path d="M32894 13198 c-4 -7 -4 -10 1 -6 4 4 15 2 24 -5 14 -11 14 -10 2 6
-16 20 -18 21 -27 5z"/>
<path d="M33376 13202 c-3 -5 1 -9 9 -9 8 0 12 4 9 9 -3 4 -7 8 -9 8 -2 0 -6
-4 -9 -8z"/>
<path d="M32695 13191 c-3 -5 -2 -12 3 -15 5 -3 9 1 9 9 0 17 -3 19 -12 6z"/>
<path d="M547 13179 c7 -7 15 -10 18 -7 3 3 -2 9 -12 12 -14 6 -15 5 -6 -5z"/>
<path d="M5110 13179 c0 -5 5 -7 10 -4 6 3 10 8 10 11 0 2 -4 4 -10 4 -5 0
-10 -5 -10 -11z"/>
<path d="M10710 13180 c0 -5 5 -10 11 -10 5 0 7 5 4 10 -3 6 -8 10 -11 10 -2
0 -4 -4 -4 -10z"/>
<path d="M13256 13182 c-2 -4 -1 -14 4 -22 7 -11 9 -9 7 8 -1 24 -3 26 -11 14z"/>
<path d="M19013 13175 c0 -8 4 -12 9 -9 5 3 6 10 3 15 -9 13 -12 11 -12 -6z"/>
<path d="M19270 13181 c0 -6 4 -13 10 -16 6 -3 7 1 4 9 -7 18 -14 21 -14 7z"/>
<path d="M19436 13173 c-6 -14 -5 -15 5 -6 7 7 10 15 7 18 -3 3 -9 -2 -12 -12z"/>
<path d="M19935 13181 c-3 -5 -2 -12 3 -15 5 -3 9 1 9 9 0 17 -3 19 -12 6z"/>
<path d="M28390 13176 c7 -7 13 -7 20 0 6 6 3 10 -10 10 -13 0 -16 -4 -10 -10z"/>
<path d="M28506 13182 c-3 -5 1 -9 9 -9 8 0 15 4 15 9 0 4 -4 8 -9 8 -6 0 -12
-4 -15 -8z"/>
<path d="M28610 13179 c0 -5 5 -7 10 -4 6 3 10 8 10 11 0 2 -4 4 -10 4 -5 0
-10 -5 -10 -11z"/>
<path d="M32733 13169 c-2 -23 3 -25 10 -4 4 8 3 16 -1 19 -4 3 -9 -4 -9 -15z"/>
<path d="M33030 13176 c7 -7 13 -7 20 0 6 6 3 10 -10 10 -13 0 -16 -4 -10 -10z"/>
<path d="M33190 13181 c0 -6 4 -13 10 -16 6 -3 7 1 4 9 -7 18 -14 21 -14 7z"/>
<path d="M33555 13180 c-3 -5 -1 -10 4 -10 6 0 11 5 11 10 0 6 -2 10 -4 10 -3
0 -8 -4 -11 -10z"/>
<path d="M844 13158 l-19 -23 23 19 c21 18 27 26 19 26 -2 0 -12 -10 -23 -22z"/>
<path d="M5229 13163 c-13 -16 -12 -17 4 -4 16 13 21 21 13 21 -2 0 -10 -8
-17 -17z"/>
<path d="M5644 13158 l-19 -23 23 19 c21 18 27 26 19 26 -2 0 -12 -10 -23 -22z"/>
<path d="M5775 13169 c-4 -6 -5 -12 -2 -15 2 -3 7 2 10 11 7 17 1 20 -8 4z"/>
<path d="M5870 13176 c0 -2 8 -10 18 -17 15 -13 16 -12 3 4 -13 16 -21 21 -21
13z"/>
<path d="M19569 13163 c-13 -16 -12 -17 4 -4 9 7 17 15 17 17 0 8 -8 3 -21
-13z"/>
<path d="M28175 13169 c-4 -6 -5 -12 -2 -15 2 -3 7 2 10 11 7 17 1 20 -8 4z"/>
<path d="M28655 13171 c-3 -5 -2 -12 3 -15 5 -3 9 1 9 9 0 17 -3 19 -12 6z"/>
<path d="M32790 13177 c0 -2 6 -10 14 -16 11 -9 16 -9 22 1 4 7 4 10 -1 6 -4
-4 -14 -3 -22 3 -7 6 -13 9 -13 6z"/>
<path d="M290 13160 c0 -5 5 -10 11 -10 5 0 7 5 4 10 -3 6 -8 10 -11 10 -2 0
-4 -4 -4 -10z"/>
<path d="M996 13153 c-6 -14 -5 -15 5 -6 7 7 10 15 7 18 -3 3 -9 -2 -12 -12z"/>
<path d="M10875 13160 c3 -5 8 -10 11 -10 2 0 4 5 4 10 0 6 -5 10 -11 10 -5 0
-7 -4 -4 -10z"/>
<path d="M10906 13159 c4 -8 30 -6 38 2 3 3 -5 5 -19 5 -13 0 -22 -3 -19 -7z"/>
<path d="M18866 13158 c3 -5 10 -6 15 -3 13 9 11 12 -6 12 -8 0 -12 -4 -9 -9z"/>
<path d="M19194 13162 c4 -3 14 -7 22 -8 9 -1 13 0 10 4 -4 3 -14 7 -22 8 -9
1 -13 0 -10 -4z"/>
<path d="M19496 13162 c-3 -5 1 -9 9 -9 8 0 12 4 9 9 -3 4 -7 8 -9 8 -2 0 -6
-4 -9 -8z"/>
<path d="M23227 13159 c7 -7 15 -10 18 -7 3 3 -2 9 -12 12 -14 6 -15 5 -6 -5z"/>
<path d="M23267 13159 c7 -7 15 -10 18 -7 3 3 -2 9 -12 12 -14 6 -15 5 -6 -5z"/>
<path d="M28060 13166 c0 -2 8 -10 18 -17 15 -13 16 -12 3 4 -13 16 -21 21
-21 13z"/>
<path d="M28116 13153 c-6 -14 -5 -15 5 -6 7 7 10 15 7 18 -3 3 -9 -2 -12 -12z"/>
<path d="M28556 13158 c3 -5 10 -6 15 -3 13 9 11 12 -6 12 -8 0 -12 -4 -9 -9z"/>
<path d="M32839 13153 c-13 -16 -12 -17 4 -4 9 7 17 15 17 17 0 8 -8 3 -21
-13z"/>
<path d="M33479 13153 c-13 -16 -12 -17 4 -4 9 7 17 15 17 17 0 8 -8 3 -21
-13z"/>
<path d="M33520 13160 c-9 -6 -10 -10 -3 -10 6 0 15 5 18 10 8 12 4 12 -15 0z"/>
<path d="M33635 13161 c-3 -5 -2 -12 3 -15 5 -3 9 1 9 9 0 17 -3 19 -12 6z"/>
<path d="M27875 13149 c-4 -6 -5 -12 -2 -15 2 -3 7 2 10 11 7 17 1 20 -8 4z"/>
<path d="M370 13140 c0 -5 5 -10 11 -10 5 0 7 5 4 10 -3 6 -8 10 -11 10 -2 0
-4 -4 -4 -10z"/>
<path d="M13376 13142 c-3 -5 1 -9 9 -9 8 0 12 4 9 9 -3 4 -7 8 -9 8 -2 0 -6
-4 -9 -8z"/>
<path d="M18933 13129 c-2 -23 3 -25 10 -4 4 8 3 16 -1 19 -4 3 -9 -4 -9 -15z"/>
<path d="M19015 13140 c3 -5 8 -10 11 -10 2 0 4 5 4 10 0 6 -5 10 -11 10 -5 0
-7 -4 -4 -10z"/>
<path d="M19055 13140 c-3 -5 -1 -10 4 -10 6 0 11 5 11 10 0 6 -2 10 -4 10 -3
0 -8 -4 -11 -10z"/>
<path d="M19430 13146 c0 -2 7 -7 16 -10 8 -3 12 -2 9 4 -6 10 -25 14 -25 6z"/>
<path d="M19760 13140 c-9 -6 -10 -10 -3 -10 6 0 15 5 18 10 8 12 4 12 -15 0z"/>
<path d="M19890 13140 c0 -5 5 -10 11 -10 5 0 7 5 4 10 -3 6 -8 10 -11 10 -2
0 -4 -4 -4 -10z"/>
<path d="M19930 13139 c0 -5 5 -7 10 -4 6 3 10 8 10 11 0 2 -4 4 -10 4 -5 0
-10 -5 -10 -11z"/>
<path d="M23314 13136 c1 -8 5 -18 8 -22 4 -3 5 1 4 10 -1 8 -5 18 -8 22 -4 3
-5 -1 -4 -10z"/>
<path d="M28696 13138 c3 -4 11 -5 19 -1 21 7 19 12 -4 10 -11 0 -18 -5 -15
-9z"/>
<path d="M5993 13125 c0 -8 4 -12 9 -9 5 3 6 10 3 15 -9 13 -12 11 -12 -6z"/>
<path d="M5156 13113 c-6 -14 -5 -15 5 -6 7 7 10 15 7 18 -3 3 -9 -2 -12 -12z"/>
<path d="M5675 13120 c3 -5 8 -10 11 -10 2 0 4 5 4 10 0 6 -5 10 -11 10 -5 0
-7 -4 -4 -10z"/>
<path d="M11056 13113 c-6 -14 -5 -15 5 -6 7 7 10 15 7 18 -3 3 -9 -2 -12 -12z"/>
<path d="M13153 13115 c0 -8 4 -12 9 -9 5 3 6 10 3 15 -9 13 -12 11 -12 -6z"/>
<path d="M18975 13120 c-3 -5 -1 -10 4 -10 6 0 11 5 11 10 0 6 -2 10 -4 10 -3
0 -8 -4 -11 -10z"/>
<path d="M19657 13115 c-4 -8 -3 -16 1 -19 4 -3 9 4 9 15 2 23 -3 25 -10 4z"/>
<path d="M23270 13126 c0 -2 7 -7 16 -10 8 -3 12 -2 9 4 -6 10 -25 14 -25 6z"/>
<path d="M28061 13116 c-9 -11 -9 -16 1 -22 7 -4 10 -4 6 1 -4 4 -3 14 3 22 6
7 9 13 6 13 -2 0 -10 -6 -16 -14z"/>
<path d="M28150 13126 c0 -2 7 -7 16 -10 8 -3 12 -2 9 4 -6 10 -25 14 -25 6z"/>
<path d="M33356 13118 c3 -5 10 -6 15 -3 13 9 11 12 -6 12 -8 0 -12 -4 -9 -9z"/>
<path d="M33555 13121 c-3 -5 -2 -12 3 -15 5 -3 9 1 9 9 0 17 -3 19 -12 6z"/>
<path d="M19535 13111 c-3 -5 -2 -12 3 -15 5 -3 9 1 9 9 0 17 -3 19 -12 6z"/>
<path d="M536 13098 c3 -4 11 -5 19 -1 21 7 19 12 -4 10 -11 0 -18 -5 -15 -9z"/>
<path d="M775 13100 c3 -5 8 -10 11 -10 2 0 4 5 4 10 0 6 -5 10 -11 10 -5 0
-7 -4 -4 -10z"/>
<path d="M1056 13102 c-2 -4 -1 -14 4 -22 7 -11 9 -9 7 8 -1 24 -3 26 -11 14z"/>
<path d="M5230 13105 c0 -7 30 -13 34 -7 3 4 -4 9 -15 9 -10 1 -19 0 -19 -2z"/>
<path d="M5295 13100 c3 -5 8 -10 11 -10 2 0 4 5 4 10 0 6 -5 10 -11 10 -5 0
-7 -4 -4 -10z"/>
<path d="M5495 13100 c3 -5 8 -10 11 -10 2 0 4 5 4 10 0 6 -5 10 -11 10 -5 0
-7 -4 -4 -10z"/>
<path d="M5736 13102 c-3 -5 1 -9 9 -9 8 0 12 4 9 9 -3 4 -7 8 -9 8 -2 0 -6
-4 -9 -8z"/>
<path d="M5850 13100 c0 -5 5 -10 11 -10 5 0 7 5 4 10 -3 6 -8 10 -11 10 -2 0
-4 -4 -4 -10z"/>
<path d="M5936 13102 c-2 -4 -1 -14 4 -22 7 -11 9 -9 7 8 -1 24 -3 26 -11 14z"/>
<path d="M10950 13106 c0 -2 7 -7 16 -10 8 -3 12 -2 9 4 -6 10 -25 14 -25 6z"/>
<path d="M10995 13100 c3 -5 8 -10 11 -10 2 0 4 5 4 10 0 6 -5 10 -11 10 -5 0
-7 -4 -4 -10z"/>
<path d="M13295 13100 c3 -5 8 -10 11 -10 2 0 4 5 4 10 0 6 -5 10 -11 10 -5 0
-7 -4 -4 -10z"/>
<path d="M19175 13100 c3 -5 8 -10 11 -10 2 0 4 5 4 10 0 6 -5 10 -11 10 -5 0
-7 -4 -4 -10z"/>
<path d="M19375 13100 c-3 -5 -1 -10 4 -10 6 0 11 5 11 10 0 6 -2 10 -4 10 -3
0 -8 -4 -11 -10z"/>
<path d="M19615 13100 c3 -5 8 -10 11 -10 2 0 4 5 4 10 0 6 -5 10 -11 10 -5 0
-7 -4 -4 -10z"/>
<path d="M19810 13099 c0 -5 5 -7 10 -4 6 3 10 8 10 11 0 2 -4 4 -10 4 -5 0
-10 -5 -10 -11z"/>
<path d="M19990 13100 c0 -5 5 -10 11 -10 5 0 7 5 4 10 -3 6 -8 10 -11 10 -2
0 -4 -4 -4 -10z"/>
<path d="M28335 13100 c-3 -5 -1 -10 4 -10 6 0 11 5 11 10 0 6 -2 10 -4 10 -3
0 -8 -4 -11 -10z"/>
<path d="M28530 13099 c0 -5 5 -7 10 -4 6 3 10 8 10 11 0 2 -4 4 -10 4 -5 0
-10 -5 -10 -11z"/>
<path d="M28576 13102 c-3 -5 1 -9 9 -9 8 0 12 4 9 9 -3 4 -7 8 -9 8 -2 0 -6
-4 -9 -8z"/>
<path d="M33135 13100 c-3 -5 -1 -10 4 -10 6 0 11 5 11 10 0 6 -2 10 -4 10 -3
0 -8 -4 -11 -10z"/>
<path d="M33455 13100 c3 -5 8 -10 11 -10 2 0 4 5 4 10 0 6 -5 10 -11 10 -5 0
-7 -4 -4 -10z"/>
<path d="M11173 13087 c0 -7 9 -14 20 -14 11 -1 18 -1 16 0 -2 2 -11 8 -20 15
-12 9 -16 9 -16 -1z"/>
<path d="M28113 13085 c0 -8 4 -12 9 -9 5 3 6 10 3 15 -9 13 -12 11 -12 -6z"/>
<path d="M1159 13073 c-13 -16 -12 -17 4 -4 16 13 21 21 13 21 -2 0 -10 -8
-17 -17z"/>
<path d="M6030 13081 c0 -6 4 -13 10 -16 6 -3 7 1 4 9 -7 18 -14 21 -14 7z"/>
<path d="M11066 13078 c3 -5 10 -6 15 -3 13 9 11 12 -6 12 -8 0 -12 -4 -9 -9z"/>
<path d="M13020 13086 c0 -2 8 -10 18 -17 15 -13 16 -12 3 4 -13 16 -21 21
-21 13z"/>
<path d="M13146 13078 c3 -5 10 -6 15 -3 13 9 11 12 -6 12 -8 0 -12 -4 -9 -9z"/>
<path d="M23347 13079 c7 -7 15 -10 18 -7 3 3 -2 9 -12 12 -14 6 -15 5 -6 -5z"/>
<path d="M11107 13059 c7 -7 15 -10 18 -7 3 3 -2 9 -12 12 -14 6 -15 5 -6 -5z"/>
<path d="M13210 13060 c0 -5 5 -10 11 -10 5 0 7 5 4 10 -3 6 -8 10 -11 10 -2
0 -4 -4 -4 -10z"/>
<path d="M11290 13056 c0 -2 8 -10 18 -17 15 -13 16 -12 3 4 -13 16 -21 21
-21 13z"/>
<path d="M686 13042 c-3 -5 1 -9 9 -9 8 0 12 4 9 9 -3 4 -7 8 -9 8 -2 0 -6 -4
-9 -8z"/>
<path d="M5535 13040 c-3 -5 -1 -10 4 -10 6 0 11 5 11 10 0 6 -2 10 -4 10 -3
0 -8 -4 -11 -10z"/>
<path d="M23270 13046 c0 -2 7 -7 16 -10 8 -3 12 -2 9 4 -6 10 -25 14 -25 6z"/>
<path d="M11056 13018 c3 -4 11 -5 19 -1 21 7 19 12 -4 10 -11 0 -18 -5 -15
-9z"/>
<path d="M11180 13025 c0 -2 6 -8 13 -14 10 -8 14 -7 14 2 0 8 -6 14 -14 14
-7 0 -13 -1 -13 -2z"/>
<path d="M13133 13015 c0 -8 4 -12 9 -9 5 3 6 10 3 15 -9 13 -12 11 -12 -6z"/>
<path d="M12709 13003 c-13 -16 -12 -17 4 -4 9 7 17 15 17 17 0 8 -8 3 -21
-13z"/>
<path d="M11114 12993 c16 -20 36 -23 36 -6 0 4 -3 3 -7 0 -3 -4 -16 1 -27 10
-21 18 -21 18 -2 -4z"/>
<path d="M11227 12999 c7 -7 15 -10 18 -7 3 3 -2 9 -12 12 -14 6 -15 5 -6 -5z"/>
<path d="M11280 13000 c-9 -6 -10 -10 -3 -10 6 0 15 5 18 10 8 12 4 12 -15 0z"/>
<path d="M11380 13005 c0 -2 6 -8 13 -14 10 -8 14 -7 14 2 0 8 -6 14 -14 14
-7 0 -13 -1 -13 -2z"/>
<path d="M23426 12998 c3 -5 10 -6 15 -3 13 9 11 12 -6 12 -8 0 -12 -4 -9 -9z"/>
<path d="M11176 12978 c3 -5 10 -6 15 -3 13 9 11 12 -6 12 -8 0 -12 -4 -9 -9z"/>
<path d="M11547 12979 c7 -7 15 -10 18 -7 3 3 -2 9 -12 12 -14 6 -15 5 -6 -5z"/>
<path d="M12855 12980 c3 -5 8 -10 11 -10 2 0 4 5 4 10 0 6 -5 10 -11 10 -5 0
-7 -4 -4 -10z"/>
<path d="M23377 12983 c-9 -8 12 -33 27 -33 6 0 3 5 -7 11 -9 6 -15 14 -12 20
7 10 2 12 -8 2z"/>
<path d="M23513 12970 c-1 -11 2 -20 7 -20 4 0 7 7 6 15 -3 23 -12 26 -13 5z"/>
<path d="M12359 12978 c-5 -18 -6 -38 -1 -34 7 8 12 36 6 36 -2 0 -4 -1 -5 -2z"/>
<path d="M11230 12959 c0 -5 5 -7 10 -4 6 3 10 8 10 11 0 2 -4 4 -10 4 -5 0
-10 -5 -10 -11z"/>
<path d="M11337 12955 c-4 -8 -3 -16 1 -19 4 -3 9 4 9 15 2 23 -3 25 -10 4z"/>
<path d="M11675 12959 c-3 -4 2 -6 10 -5 21 3 28 13 10 13 -9 0 -18 -4 -20 -8z"/>
<path d="M11865 12960 c-3 -6 1 -7 9 -4 18 7 21 14 7 14 -6 0 -13 -4 -16 -10z"/>
<path d="M12386 12958 c3 -5 10 -6 15 -3 13 9 11 12 -6 12 -8 0 -12 -4 -9 -9z"/>
<path d="M12500 12966 c0 -2 8 -10 18 -17 15 -13 16 -12 3 4 -13 16 -21 21
-21 13z"/>
<path d="M23553 12945 c0 -8 4 -12 9 -9 5 3 6 10 3 15 -9 13 -12 11 -12 -6z"/>
<path d="M12730 12940 c0 -5 5 -10 11 -10 5 0 7 5 4 10 -3 6 -8 10 -11 10 -2
0 -4 -4 -4 -10z"/>
<path d="M11949 12923 c-13 -16 -12 -17 4 -4 16 13 21 21 13 21 -2 0 -10 -8
-17 -17z"/>
<path d="M23515 12929 c-4 -6 -5 -12 -2 -15 2 -3 7 2 10 11 7 17 1 20 -8 4z"/>
<path d="M11390 12919 c0 -5 5 -7 10 -4 6 3 10 8 10 11 0 2 -4 4 -10 4 -5 0
-10 -5 -10 -11z"/>
<path d="M11506 12922 c-3 -5 1 -9 9 -9 8 0 12 4 9 9 -3 4 -7 8 -9 8 -2 0 -6
-4 -9 -8z"/>
<path d="M11577 12915 c-4 -8 -3 -16 1 -19 4 -3 9 4 9 15 2 23 -3 25 -10 4z"/>
<path d="M11860 12926 c0 -2 8 -10 18 -17 15 -13 16 -12 3 4 -13 16 -21 21
-21 13z"/>
<path d="M11695 12900 c3 -5 8 -10 11 -10 2 0 4 5 4 10 0 6 -5 10 -11 10 -5 0
-7 -4 -4 -10z"/>
<path d="M11775 12900 c3 -5 8 -10 11 -10 2 0 4 5 4 10 0 6 -5 10 -11 10 -5 0
-7 -4 -4 -10z"/>
<path d="M11810 12899 c0 -5 5 -7 10 -4 6 3 10 8 10 11 0 2 -4 4 -10 4 -5 0
-10 -5 -10 -11z"/>
<path d="M12015 12900 c3 -5 8 -10 11 -10 2 0 4 5 4 10 0 6 -5 10 -11 10 -5 0
-7 -4 -4 -10z"/>
<path d="M12130 12899 c0 -5 5 -7 10 -4 6 3 10 8 10 11 0 2 -4 4 -10 4 -5 0
-10 -5 -10 -11z"/>
<path d="M12610 12899 c0 -5 5 -7 10 -4 6 3 10 8 10 11 0 2 -4 4 -10 4 -5 0
-10 -5 -10 -11z"/>
<path d="M12695 12901 c-3 -5 -2 -12 3 -15 5 -3 9 1 9 9 0 17 -3 19 -12 6z"/>
<path d="M23535 12900 c3 -5 8 -10 11 -10 2 0 4 5 4 10 0 6 -5 10 -11 10 -5 0
-7 -4 -4 -10z"/>
<path d="M12275 12889 c-4 -6 -5 -12 -2 -15 2 -3 7 2 10 11 7 17 1 20 -8 4z"/>
<path d="M12509 12883 c-13 -16 -12 -17 4 -4 16 13 21 21 13 21 -2 0 -10 -8
-17 -17z"/>
<path d="M11975 12880 c-3 -5 -1 -10 4 -10 6 0 11 5 11 10 0 6 -2 10 -4 10 -3
0 -8 -4 -11 -10z"/>
<path d="M12235 12881 c-3 -5 -2 -12 3 -15 5 -3 9 1 9 9 0 17 -3 19 -12 6z"/>
<path d="M12446 12882 c-3 -5 1 -9 9 -9 8 0 12 4 9 9 -3 4 -7 8 -9 8 -2 0 -6
-4 -9 -8z"/>
<path d="M23596 12882 c-3 -5 1 -9 9 -9 8 0 12 4 9 9 -3 4 -7 8 -9 8 -2 0 -6
-4 -9 -8z"/>
<path d="M23630 12881 c0 -6 4 -12 8 -15 5 -3 9 1 9 9 0 8 -4 15 -9 15 -4 0
-8 -4 -8 -9z"/>
<path d="M12293 12849 c-2 -23 3 -25 10 -4 4 8 3 16 -1 19 -4 3 -9 -4 -9 -15z"/>
<path d="M23616 12838 c3 -5 10 -6 15 -3 13 9 11 12 -6 12 -8 0 -12 -4 -9 -9z"/>
<path d="M23656 12778 c3 -4 11 -5 19 -1 21 7 19 12 -4 10 -11 0 -18 -5 -15
-9z"/>
<path d="M23780 12766 c0 -2 8 -10 18 -17 15 -13 16 -12 3 4 -13 16 -21 21
-21 13z"/>
<path d="M23675 12740 c-3 -5 -1 -10 4 -10 6 0 11 5 11 10 0 6 -2 10 -4 10 -3
0 -8 -4 -11 -10z"/>
<path d="M23790 12699 c0 -5 5 -7 10 -4 6 3 10 8 10 11 0 2 -4 4 -10 4 -5 0
-10 -5 -10 -11z"/>
<path d="M23935 12700 c3 -5 8 -10 11 -10 2 0 4 5 4 10 0 6 -5 10 -11 10 -5 0
-7 -4 -4 -10z"/>
<path d="M23935 12660 c3 -5 8 -10 11 -10 2 0 4 5 4 10 0 6 -5 10 -11 10 -5 0
-7 -4 -4 -10z"/>
<path d="M23970 12660 c0 -5 5 -10 11 -10 5 0 7 5 4 10 -3 6 -8 10 -11 10 -2
0 -4 -4 -4 -10z"/>
<path d="M24050 12660 c0 -5 5 -10 11 -10 5 0 7 5 4 10 -3 6 -8 10 -11 10 -2
0 -4 -4 -4 -10z"/>
<path d="M23915 12621 c-3 -5 -2 -12 3 -15 5 -3 9 1 9 9 0 17 -3 19 -12 6z"/>
<path d="M23976 12622 c-3 -4 4 -9 15 -9 23 -2 25 3 4 10 -8 4 -16 3 -19 -1z"/>
<path d="M24080 12600 c-9 -6 -10 -10 -3 -10 6 0 15 5 18 10 8 12 4 12 -15 0z"/>
<path d="M24114 12582 c4 -3 14 -7 22 -8 9 -1 13 0 10 4 -4 3 -14 7 -22 8 -9
1 -13 0 -10 -4z"/>
<path d="M24174 12582 c4 -3 14 -7 22 -8 9 -1 13 0 10 4 -4 3 -14 7 -22 8 -9
1 -13 0 -10 -4z"/>
<path d="M23990 12559 c0 -5 5 -7 10 -4 6 3 10 8 10 11 0 2 -4 4 -10 4 -5 0
-10 -5 -10 -11z"/>
<path d="M24067 12559 c7 -7 15 -10 18 -7 3 3 -2 9 -12 12 -14 6 -15 5 -6 -5z"/>
</g>
</svg>
