<svg width="33" height="28" viewBox="0 0 33 28" fill="none" xmlns="http://www.w3.org/2000/svg">
<path d="M32.1742 4.46491C32.13 4.35546 32.0541 4.26169 31.9562 4.19559C31.8584 4.12949 31.7431 4.09406 31.625 4.09382H26.7563C26.2159 3.03473 25.3968 2.14322 24.3871 1.51543C23.3774 0.887632 22.2154 0.547366 21.0266 0.531318C19.2838 0.523397 17.6087 1.20614 16.368 2.43015C15.1273 3.65416 14.422 5.31978 14.4063 7.06257V8.72507C7.86018 7.32975 2.41253 1.94147 2.35315 1.89694C2.27865 1.81766 2.18331 1.76098 2.07808 1.7334C1.97284 1.70581 1.86196 1.70844 1.75815 1.74098C1.65434 1.77352 1.5618 1.83465 1.49113 1.91737C1.42047 2.00009 1.37454 2.10104 1.35862 2.20866C0.0820568 9.15554 2.16018 13.8016 4.1344 16.4735C5.24033 17.9918 6.61962 19.2905 8.20159 20.3032C5.87112 23.3313 1.77424 24.8899 1.72971 24.9196C1.64631 24.9508 1.57098 25.0003 1.50931 25.0646C1.44765 25.1288 1.40122 25.2061 1.37346 25.2907C1.34532 25.3747 1.33737 25.4642 1.35026 25.5519C1.36316 25.6396 1.39653 25.723 1.44768 25.7954C1.47737 25.8548 1.86331 26.3891 2.85784 26.8938C4.11956 27.5173 5.81174 27.8438 7.87503 27.8438C18.1024 27.8438 26.6524 19.9024 27.4094 9.73444L32.0407 5.10319C32.1263 5.02373 32.1851 4.91965 32.209 4.80531C32.233 4.69098 32.2208 4.57204 32.1742 4.46491ZM26.4149 9.05163C26.3121 9.15544 26.2491 9.29203 26.2367 9.43757C25.6282 19.1008 17.5532 26.6563 7.87503 26.6563C5.23284 26.6563 3.77815 26.0774 3.05081 25.6321C4.59456 24.9196 7.72659 23.2126 9.55237 20.4516C9.60245 20.3845 9.63652 20.3068 9.65195 20.2245C9.66739 20.1421 9.66379 20.0574 9.64143 19.9766C9.61865 19.8944 9.57923 19.8177 9.52561 19.7513C9.472 19.6849 9.40532 19.6303 9.32971 19.5907C9.30003 19.5758 7.05862 18.4329 5.0844 15.761C2.62034 12.4063 1.70003 8.2946 2.35315 3.50007C4.25315 5.17741 9.15159 9.06647 14.8961 10.0165C14.9815 10.0319 15.0692 10.0293 15.1536 10.0088C15.2379 9.98836 15.3171 9.95052 15.386 9.89772C15.4515 9.84036 15.504 9.7696 15.5398 9.69021C15.5757 9.61083 15.5941 9.52467 15.5938 9.43757V7.06257C15.6094 5.63731 16.1876 4.27597 17.2024 3.27508C18.2172 2.27418 19.5864 1.71482 21.0117 1.71882C22.0386 1.7348 23.0391 2.0455 23.8944 2.61392C24.7497 3.18235 25.4236 3.98456 25.836 4.92507C25.8809 5.03294 25.9574 5.1247 26.0554 5.18828C26.1534 5.25186 26.2684 5.2843 26.3852 5.28132H30.1852L26.4149 9.05163Z" fill="#7D7C7C"/>
</svg>
