<svg width="30" height="30" viewBox="0 0 30 30" fill="none" xmlns="http://www.w3.org/2000/svg">
<path d="M10.25 7.875C10.25 8.10987 10.1804 8.33946 10.0499 8.53474C9.91939 8.73002 9.73392 8.88223 9.51694 8.97211C9.29995 9.06199 9.06118 9.0855 8.83083 9.03968C8.60048 8.99386 8.38889 8.88076 8.22281 8.71469C8.05674 8.54861 7.94364 8.33702 7.89782 8.10667C7.852 7.87632 7.87551 7.63755 7.96539 7.42056C8.05527 7.20358 8.20748 7.01811 8.40276 6.88763C8.59804 6.75715 8.82763 6.6875 9.0625 6.6875C9.37744 6.6875 9.67949 6.81261 9.90219 7.03531C10.1249 7.25801 10.25 7.56006 10.25 7.875ZM9.0625 12.0312C8.90503 12.0312 8.754 12.0938 8.64265 12.2052C8.53131 12.3165 8.46875 12.4675 8.46875 12.625V22.125C8.46875 22.2825 8.53131 22.4335 8.64265 22.5448C8.754 22.6562 8.90503 22.7188 9.0625 22.7188C9.21997 22.7188 9.371 22.6562 9.48235 22.5448C9.5937 22.4335 9.65625 22.2825 9.65625 22.125V12.625C9.65625 12.4675 9.5937 12.3165 9.48235 12.2052C9.371 12.0938 9.21997 12.0312 9.0625 12.0312ZM17.9688 12.0312C17.2938 12.0306 16.6265 12.1746 16.012 12.4537C15.3974 12.7328 14.8499 13.1405 14.4062 13.6492V12.625C14.4062 12.4675 14.3437 12.3165 14.2323 12.2052C14.121 12.0938 13.97 12.0312 13.8125 12.0312C13.655 12.0312 13.504 12.0938 13.3927 12.2052C13.2813 12.3165 13.2188 12.4675 13.2188 12.625V22.125C13.2188 22.2825 13.2813 22.4335 13.3927 22.5448C13.504 22.6562 13.655 22.7188 13.8125 22.7188C13.97 22.7188 14.121 22.6562 14.2323 22.5448C14.3437 22.4335 14.4062 22.2825 14.4062 22.125V16.7812C14.4062 15.8364 14.7816 14.9303 15.4497 14.2622C16.1178 13.5941 17.0239 13.2188 17.9688 13.2188C18.9136 13.2188 19.8197 13.5941 20.4878 14.2622C21.1559 14.9303 21.5312 15.8364 21.5312 16.7812V22.125C21.5312 22.2825 21.5938 22.4335 21.7052 22.5448C21.8165 22.6562 21.9675 22.7188 22.125 22.7188C22.2825 22.7188 22.4335 22.6562 22.5448 22.5448C22.6562 22.4335 22.7188 22.2825 22.7188 22.125V16.7812C22.7148 15.5227 22.2131 14.3168 21.3232 13.4268C20.4332 12.5369 19.2273 12.0352 17.9688 12.0312ZM29.25 2.53125V27.4688C29.25 27.9412 29.0623 28.3942 28.7283 28.7283C28.3942 29.0623 27.9412 29.25 27.4688 29.25H2.53125C2.05883 29.25 1.60576 29.0623 1.27172 28.7283C0.937667 28.3942 0.75 27.9412 0.75 27.4688V2.53125C0.75 2.05883 0.937667 1.60576 1.27172 1.27172C1.60576 0.937667 2.05883 0.75 2.53125 0.75H27.4688C27.9412 0.75 28.3942 0.937667 28.7283 1.27172C29.0623 1.60576 29.25 2.05883 29.25 2.53125ZM28.0625 2.53125C28.0625 2.37378 27.9999 2.22276 27.8886 2.11141C27.7772 2.00006 27.6262 1.9375 27.4688 1.9375H2.53125C2.37378 1.9375 2.22276 2.00006 2.11141 2.11141C2.00006 2.22276 1.9375 2.37378 1.9375 2.53125V27.4688C1.9375 27.6262 2.00006 27.7772 2.11141 27.8886C2.22276 27.9999 2.37378 28.0625 2.53125 28.0625H27.4688C27.6262 28.0625 27.7772 27.9999 27.8886 27.8886C27.9999 27.7772 28.0625 27.6262 28.0625 27.4688V2.53125Z" fill="#7D7C7C"/>
</svg>
