<svg width="30" height="30" viewBox="0 0 30 30" fill="none" xmlns="http://www.w3.org/2000/svg">
<path d="M15 8.46875C13.7082 8.46875 12.4455 8.8518 11.3714 9.56946C10.2974 10.2871 9.46025 11.3072 8.96591 12.5006C8.47158 13.694 8.34224 15.0072 8.59425 16.2742C8.84626 17.5411 9.4683 18.7049 10.3817 19.6183C11.2951 20.5317 12.4589 21.1537 13.7258 21.4058C14.9928 21.6578 16.306 21.5284 17.4994 21.0341C18.6928 20.5398 19.7129 19.7026 20.4305 18.6286C21.1482 17.5545 21.5312 16.2918 21.5312 15C21.5312 13.2678 20.8431 11.6066 19.6183 10.3817C18.3934 9.15686 16.7322 8.46875 15 8.46875ZM15 20.3438C13.9431 20.3438 12.9099 20.0303 12.0312 19.4432C11.1524 18.856 10.4675 18.0214 10.063 17.045C9.65856 16.0685 9.55274 14.9941 9.75893 13.9575C9.96512 12.9209 10.4741 11.9687 11.2214 11.2214C11.9687 10.4741 12.9209 9.96512 13.9575 9.75893C14.9941 9.55274 16.0685 9.65856 17.045 10.063C18.0214 10.4675 18.856 11.1524 19.4432 12.0312C20.0303 12.9099 20.3438 13.9431 20.3438 15C20.3438 16.4173 19.7807 17.7765 18.7786 18.7786C17.7765 19.7807 16.4173 20.3438 15 20.3438ZM21.5312 0.75H8.46875C6.42161 0.75 4.45832 1.56322 3.01077 3.01077C1.56322 4.45832 0.75 6.42161 0.75 8.46875V21.5312C0.75 22.5449 0.949651 23.5486 1.33755 24.4851C1.72546 25.4216 2.29402 26.2725 3.01077 26.9892C4.45832 28.4368 6.42161 29.25 8.46875 29.25H21.5312C22.5449 29.25 23.5486 29.0503 24.4851 28.6624C25.4216 28.2745 26.2725 27.706 26.9892 26.9892C27.706 26.2725 28.2745 25.4216 28.6624 24.4851C29.0503 23.5486 29.25 22.5449 29.25 21.5312V8.46875C29.25 7.45511 29.0503 6.45139 28.6624 5.51491C28.2745 4.57843 27.706 3.72752 26.9892 3.01077C26.2725 2.29402 25.4216 1.72546 24.4851 1.33755C23.5486 0.949651 22.5449 0.75 21.5312 0.75ZM28.0625 21.5312C28.0625 23.2634 27.3744 24.9247 26.1495 26.1495C24.9247 27.3744 23.2634 28.0625 21.5312 28.0625H8.46875C6.73656 28.0625 5.07531 27.3744 3.85046 26.1495C2.62561 24.9247 1.9375 23.2634 1.9375 21.5312V8.46875C1.9375 6.73656 2.62561 5.07531 3.85046 3.85046C5.07531 2.62561 6.73656 1.9375 8.46875 1.9375H21.5312C23.2634 1.9375 24.9247 2.62561 26.1495 3.85046C27.3744 5.07531 28.0625 6.73656 28.0625 8.46875V21.5312ZM23.9062 7.28125C23.9062 7.51612 23.8366 7.74571 23.7061 7.94099C23.5756 8.13627 23.3902 8.28848 23.1732 8.37836C22.9562 8.46824 22.7174 8.49175 22.4871 8.44593C22.2567 8.40011 22.0451 8.28701 21.8791 8.12094C21.713 7.95486 21.5999 7.74327 21.5541 7.51292C21.5082 7.28257 21.5318 7.0438 21.6216 6.82681C21.7115 6.60983 21.8637 6.42436 22.059 6.29388C22.2543 6.1634 22.4839 6.09375 22.7188 6.09375C23.0337 6.09375 23.3357 6.21886 23.5584 6.44156C23.7811 6.66426 23.9062 6.96631 23.9062 7.28125Z" fill="#7D7C7C"/>
</svg>
